<svg version="1.1" id="Layer_1" xmlns="http://www.w3.org/2000/svg" xmlns:xlink="http://www.w3.org/1999/xlink" x="0px" y="0px"
	 width="100%" viewBox="0 0 1201 1200" enable-background="new 0 0 1201 1200" xml:space="preserve">
<path fill="#FFFFFF" opacity="1.000000" stroke="none" 
	d="
M1202.000000,401.000000 
	C1202.000000,668.000000 1202.000000,934.500000 1202.000000,1201.000000 
	C801.666687,1201.000000 401.333344,1201.000000 1.000000,1201.000000 
	C1.000000,801.000000 1.000000,401.000000 1.000000,1.000000 
	C401.333344,1.000000 801.666687,1.000000 1202.000000,1.000000 
	C1202.000000,134.166672 1202.000000,267.333344 1202.000000,401.000000 
M1064.001099,389.919495 
	C1064.000732,297.607422 1064.031006,205.295303 1063.956055,112.983284 
	C1063.947754,102.888748 1063.913574,92.731705 1062.827515,82.719078 
	C1061.841797,73.632347 1058.706421,65.151810 1051.399658,58.694065 
	C1040.111328,48.717358 1026.857300,48.003822 1013.147217,50.520504 
	C1002.296326,52.512360 991.556458,55.239845 980.897705,58.122795 
	C953.089905,65.644264 924.650452,69.606766 896.138977,72.814156 
	C878.785522,74.766327 861.248230,75.457733 843.774536,75.831810 
	C832.764465,76.067520 821.697021,74.922028 810.695251,73.946243 
	C794.526733,72.512177 778.353027,70.995651 762.255615,68.935249 
	C739.123535,65.974434 716.615784,60.146446 694.388428,53.144703 
	C673.988403,46.718567 654.399414,38.403389 635.324341,28.773649 
	C625.509583,23.818853 615.265381,20.312054 604.057312,19.940334 
	C591.582581,19.526606 580.034363,22.864208 569.198364,28.465031 
	C547.129517,39.871780 524.075745,48.747742 500.375732,55.962471 
	C468.740112,65.592941 436.274689,71.071480 403.385284,73.902107 
	C389.071899,75.133987 374.674377,75.494049 360.305237,75.918327 
	C354.721954,76.083176 349.114014,75.286003 343.513153,75.011116 
	C335.751221,74.630150 327.975891,74.470299 320.223969,73.951927 
	C312.849731,73.458817 305.461029,72.895439 298.144897,71.884026 
	C285.375000,70.118660 272.591156,68.326500 259.931915,65.920700 
	C244.116074,62.915020 228.363495,59.519436 212.689926,55.839359 
	C199.259369,52.685936 186.167282,47.723766 171.957596,49.976902 
	C163.724152,51.282421 156.524384,54.234333 150.693802,60.568592 
	C142.315765,69.670364 140.176758,80.971878 140.147278,92.402512 
	C139.890732,191.879318 139.997955,291.357056 139.070923,390.985321 
	C124.409378,390.990173 109.747353,390.931854 95.086647,391.045135 
	C91.506172,391.072784 87.918694,391.570831 84.353767,392.009644 
	C62.083115,394.751190 45.026840,415.111786 45.016399,438.024811 
	C44.975716,527.327209 44.991150,616.629639 45.040638,705.932068 
	C45.042156,708.677551 45.712887,711.416870 45.961617,714.168945 
	C48.022423,736.970520 71.079948,755.069336 94.031456,754.138733 
	C110.326042,753.478149 126.673042,754.110046 142.998749,755.080139 
	C144.018356,772.038208 143.844131,789.175781 146.360458,805.908813 
	C149.489883,826.718628 156.865036,846.396973 167.314240,864.903687 
	C178.811218,885.266174 193.130951,903.469360 208.494644,920.916382 
	C216.910950,930.473999 225.466248,939.951172 234.519897,948.896729 
	C253.654495,967.803040 272.488098,987.102478 292.720520,1004.781067 
	C309.035828,1019.036987 326.835480,1031.707886 344.660339,1044.098511 
	C380.812042,1069.228516 418.725250,1091.577515 457.170258,1112.997681 
	C484.666809,1128.317627 512.235901,1143.515015 539.980774,1158.378662 
	C555.036377,1166.444336 569.644775,1175.576904 586.385437,1180.112549 
	C599.495972,1183.664429 612.503906,1183.013916 624.914612,1177.865234 
	C634.832031,1173.750977 644.338013,1168.590942 653.845581,1163.553345 
	C676.191223,1151.713013 698.540527,1139.871338 720.678223,1127.649658 
	C743.076965,1115.283936 765.617310,1103.099976 787.382568,1089.679932 
	C816.503601,1071.724487 845.042725,1052.814697 873.633362,1034.013184 
	C895.933960,1019.347961 916.140198,1002.026672 935.108643,983.302673 
	C946.694641,971.865967 957.974731,960.110535 969.156189,948.275269 
	C980.963196,935.777832 992.624329,923.136169 1004.106750,910.340027 
	C1020.116699,892.498169 1033.506348,872.859741 1043.493164,851.002014 
	C1051.394653,833.708618 1056.732788,815.574890 1058.818604,796.736938 
	C1060.379639,782.638550 1060.333740,768.362183 1061.929565,754.014648 
	C1078.752686,754.009766 1095.576050,754.045776 1112.398682,753.956726 
	C1114.977051,753.943115 1117.557983,753.393250 1120.128052,753.023560 
	C1143.215210,749.702148 1158.972046,728.569092 1158.983032,705.998901 
	C1159.024902,619.884216 1159.018433,533.769592 1158.957153,447.654938 
	C1158.953125,442.076385 1158.505005,436.481781 1157.966187,430.923523 
	C1156.953491,420.480011 1151.913086,411.646698 1144.764282,404.549866 
	C1135.483521,395.336304 1123.782593,390.881866 1110.462280,390.964600 
	C1094.976685,391.060822 1079.489502,390.889618 1064.001099,389.919495 
z"/>
<path fill="#151C2B" opacity="1.000000" stroke="none" 
	d="
M142.996643,754.165100 
	C126.673042,754.110046 110.326042,753.478149 94.031456,754.138733 
	C71.079948,755.069336 48.022423,736.970520 45.961617,714.168945 
	C45.712887,711.416870 45.042156,708.677551 45.040638,705.932068 
	C44.991150,616.629639 44.975716,527.327209 45.016399,438.024811 
	C45.026840,415.111786 62.083115,394.751190 84.353767,392.009644 
	C87.918694,391.570831 91.506172,391.072784 95.086647,391.045135 
	C109.747353,390.931854 124.409378,390.990173 139.997131,390.978699 
	C151.322189,390.991150 161.721024,391.010223 172.577087,391.072510 
	C200.705276,391.097321 228.376221,391.078918 256.510315,391.091187 
	C304.645203,391.114197 352.316956,391.106567 400.457062,391.134491 
	C444.612885,391.149872 488.300323,391.129669 532.455811,391.151672 
	C556.627808,391.155609 580.331848,391.117310 604.501465,391.112091 
	C719.215515,391.136627 833.463989,391.128082 948.147583,391.186462 
	C950.018555,391.234039 951.454346,391.214722 953.358704,391.287262 
	C965.881836,391.306641 977.936523,391.234100 990.449463,391.274231 
	C1000.268616,391.311584 1009.629395,391.236237 1019.443909,391.275574 
	C1023.731384,391.269043 1027.565186,391.147766 1031.839844,391.081696 
	C1042.854858,391.036102 1053.428833,390.935303 1064.002930,390.834473 
	C1079.489502,390.889618 1094.976685,391.060822 1110.462280,390.964600 
	C1123.782593,390.881866 1135.483521,395.336304 1144.764282,404.549866 
	C1151.913086,411.646698 1156.953491,420.480011 1157.966187,430.923523 
	C1158.505005,436.481781 1158.953125,442.076385 1158.957153,447.654938 
	C1159.018433,533.769592 1159.024902,619.884216 1158.983032,705.998901 
	C1158.972046,728.569092 1143.215210,749.702148 1120.128052,753.023560 
	C1117.557983,753.393250 1114.977051,753.943115 1112.398682,753.956726 
	C1095.576050,754.045776 1078.752686,754.009766 1061.003174,754.020996 
	C1049.407349,754.038208 1038.737793,754.048950 1027.601929,753.965820 
	C1006.758789,753.933044 986.381958,753.994141 965.544922,753.967285 
	C960.061096,753.929504 955.037354,753.979736 949.602600,753.972412 
	C947.814270,753.953430 946.437012,753.992065 944.588379,753.996460 
	C855.746277,753.982056 767.375610,754.001892 678.536377,753.997864 
	C652.377808,753.987915 626.687683,754.001831 600.529602,753.991821 
	C551.375732,753.986267 502.689758,754.004517 453.535339,754.000061 
	C411.712891,753.991211 370.358887,754.005127 328.536255,753.999939 
	C305.020386,754.010803 281.973114,754.040649 258.465698,754.031372 
	C230.330231,754.016418 202.654953,754.040710 174.514435,754.017273 
	C163.698318,754.034729 153.347488,754.099915 142.996643,754.165100 
M560.049988,657.627930 
	C587.655090,642.855774 602.228577,618.856812 607.919556,588.947388 
	C610.494202,575.415771 610.305786,561.713379 609.269897,547.876648 
	C608.286377,534.738647 605.278564,522.366211 599.937073,510.568207 
	C588.048035,484.308289 567.998108,466.965057 540.229187,459.503021 
	C525.481262,455.539978 510.326111,453.770660 494.764771,455.811188 
	C479.012573,457.876740 464.188507,462.060638 450.896484,470.724396 
	C420.020874,490.849152 407.487640,521.078979 405.129242,556.376587 
	C404.172729,570.692444 405.885773,584.940613 410.066437,598.812378 
	C415.462372,616.716492 424.054047,632.697998 438.405670,644.975342 
	C461.589508,664.808350 488.685089,671.922119 518.794556,669.084167 
	C533.018127,667.743530 546.598511,664.396179 560.049988,657.627930 
M814.867676,660.911804 
	C801.410583,632.950684 785.427856,606.518982 766.295105,581.517456 
	C768.311584,580.539246 769.935730,579.791382 771.524353,578.974426 
	C786.840576,571.097595 798.731323,560.079834 802.342896,542.557251 
	C803.827881,535.352173 803.976196,527.770447 803.913696,520.366882 
	C803.735840,499.309784 795.053833,482.807983 776.676086,471.866333 
	C760.113281,462.005310 741.710815,458.808258 722.920837,458.117828 
	C709.186707,457.613159 695.381836,458.377563 681.635376,459.092865 
	C672.433289,459.571686 663.296631,461.360748 654.095032,461.777527 
	C648.873657,462.014008 648.330688,464.349670 648.336914,468.624054 
	C648.429688,532.286377 648.398376,595.948853 648.414429,659.611328 
	C648.414856,661.362366 648.617188,663.113403 648.725830,664.871704 
	C664.386169,664.871704 679.474731,664.871704 695.063721,664.871704 
	C695.063721,640.190674 695.063721,615.788757 695.063721,591.000610 
	C700.857849,591.000610 706.184570,591.335205 711.448608,590.904358 
	C716.489380,590.491821 719.843323,592.079468 722.516602,596.444580 
	C735.806091,618.144958 749.360779,639.683167 762.604004,661.411499 
	C764.325439,664.235962 766.005127,665.283386 769.256226,665.232300 
	C781.419067,665.041077 793.586731,665.155884 805.752625,665.155884 
	C809.158936,665.155884 812.565247,665.155884 816.579590,665.155884 
	C815.889832,663.439636 815.533569,662.553162 814.867676,660.911804 
M882.753418,668.957581 
	C886.020996,669.304504 889.282654,669.871826 892.557251,669.960693 
	C907.801208,670.374451 922.943115,669.534912 937.780823,665.644165 
	C951.472473,662.053955 963.683411,655.941284 972.452820,644.401367 
	C985.050964,627.823120 984.847900,608.862000 981.272400,589.824280 
	C978.013611,572.472473 966.332825,561.052124 950.992493,553.656372 
	C938.918640,547.835449 926.212341,543.339539 913.901245,537.992065 
	C906.611633,534.825623 899.238220,531.654297 892.462158,527.558960 
	C885.632263,523.431152 883.585266,516.504944 885.256897,508.791504 
	C886.928650,501.077423 892.753174,497.344299 899.854492,496.250702 
	C916.075623,493.752563 932.181091,494.188660 947.697021,500.445343 
	C951.813721,502.105377 955.900452,503.839539 960.354065,505.686035 
	C964.420044,494.609253 968.189880,483.846252 972.367798,473.244049 
	C973.702393,469.857239 972.808655,468.222717 969.752136,467.248993 
	C959.890015,464.107239 950.123413,460.572021 940.106079,458.032257 
	C923.710938,453.875610 907.025757,454.204376 890.469604,457.051544 
	C856.179504,462.948334 836.984253,485.720062 837.044556,520.120361 
	C837.067810,533.374512 842.395996,544.533752 851.294678,554.096069 
	C863.028687,566.705078 878.823547,572.022583 894.248962,578.125366 
	C904.876343,582.329895 915.463562,586.776855 925.617981,591.992981 
	C934.289124,596.447266 936.309998,604.821411 934.863892,613.875427 
	C933.557373,622.055603 927.328247,625.838074 920.102356,627.716064 
	C904.747070,631.706848 889.268127,631.023132 874.078857,626.960876 
	C864.710571,624.455444 855.649658,620.800903 846.255066,617.595459 
	C842.446167,628.401428 838.712158,639.420654 834.626526,650.308044 
	C833.503662,653.300049 834.342957,654.561523 836.921143,655.628296 
	C841.218628,657.406311 845.324280,659.819641 849.764648,661.045959 
	C860.380066,663.977661 871.143555,666.373718 882.753418,668.957581 
M284.096832,513.628418 
	C291.645569,505.102203 300.928253,499.051117 312.213348,497.785553 
	C327.252930,496.098999 342.449524,495.553558 357.127075,500.719391 
	C363.481323,502.955841 369.755859,505.418640 376.284515,507.860107 
	C380.445831,496.250763 384.632782,484.869598 388.476654,473.373688 
	C388.853149,472.247681 387.517334,469.690826 386.303589,469.025696 
	C375.579468,463.148590 364.071259,459.944641 351.981750,457.690186 
	C330.924927,453.763458 310.271637,454.071259 289.804626,460.140656 
	C251.731384,471.431030 222.197342,508.976135 221.107544,547.717407 
	C220.781418,559.311279 221.326202,570.961243 222.079926,582.545898 
	C223.000595,596.696655 227.112503,610.080505 233.697906,622.640137 
	C251.193695,656.008057 281.418518,667.538513 316.459839,669.787781 
	C327.245483,670.480164 338.250214,669.102417 349.054535,667.825745 
	C362.972198,666.181274 376.403015,662.353882 388.947968,655.924194 
	C390.227570,655.268311 391.990143,653.100098 391.706818,652.220337 
	C387.906250,640.417664 383.781464,628.719421 379.793152,617.157471 
	C379.048370,617.190613 378.861267,617.150513 378.718506,617.212524 
	C376.737427,618.073975 374.796997,619.040344 372.780518,619.807129 
	C353.509125,627.134827 333.860992,631.140869 313.156494,627.095093 
	C294.480896,623.445740 281.160889,612.789612 274.461945,595.342285 
	C269.966919,583.635193 268.323914,570.985657 268.932068,558.171814 
	C269.696991,542.054688 273.420197,527.067322 284.096832,513.628418 
z"/>
<path fill="#02ADEF" opacity="1.000000" stroke="none" 
	d="
M1064.001953,390.376984 
	C1053.428833,390.935303 1042.854858,391.036102 1031.803711,390.613892 
	C1031.254395,372.730377 1031.182251,355.369904 1031.189209,337.597351 
	C1031.457397,334.537720 1031.808105,331.890320 1031.811890,329.242432 
	C1031.882324,280.462585 1031.938110,231.682739 1031.940063,182.902878 
	C1031.941406,148.276825 1031.858154,113.650772 1031.771484,78.727448 
	C1031.029663,78.562065 1030.329224,78.693970 1029.260742,78.872879 
	C987.294006,92.674950 944.427795,100.266464 900.574951,105.143799 
	C898.805420,105.049362 897.473511,104.935677 896.152832,105.013100 
	C879.401550,105.995087 862.658020,107.129433 845.899048,107.949013 
	C838.616333,108.305168 831.302795,108.028488 823.541992,107.995529 
	C818.661499,107.653191 814.227905,107.492043 809.825500,107.032372 
	C789.525208,104.912704 769.233643,102.709877 748.604004,100.406616 
	C726.845703,95.173439 705.422363,90.070511 683.635132,84.915291 
	C665.847961,77.943169 648.424744,71.023338 630.668823,63.953560 
	C622.054321,59.597134 613.843262,55.239582 605.437988,51.296249 
	C603.472046,50.373951 600.558411,50.100845 598.588745,50.855286 
	C594.967834,52.242233 591.724182,54.614246 588.003479,56.647728 
	C576.457825,61.880791 565.231934,67.041794 553.655396,72.268219 
	C537.539124,77.901276 521.773499,83.468918 505.608582,89.038246 
	C486.440887,93.210358 467.672546,97.380783 448.462585,101.586670 
	C424.346405,103.801498 400.671844,105.980865 376.532104,108.101761 
	C362.295502,108.018646 348.497803,108.517044 334.759491,107.829681 
	C319.480347,107.065231 304.255249,105.220505 288.646851,103.671776 
	C271.005188,100.677864 253.650726,98.234810 236.463928,94.921844 
	C222.205933,92.173439 208.145416,88.400414 193.675247,84.891319 
	C186.438385,82.534668 179.523682,80.367989 172.028595,78.019447 
	C172.028595,80.122032 172.028046,81.737671 172.028702,83.353302 
	C172.034424,97.313080 172.021759,111.272888 172.050323,125.232620 
	C172.100616,149.824158 172.176117,174.415649 172.170746,199.470276 
	C172.106918,263.632019 172.113388,327.330627 172.119873,391.029297 
	C161.721024,391.010223 151.322189,390.991150 140.460205,390.903320 
	C139.997955,291.357056 139.890732,191.879318 140.147278,92.402512 
	C140.176758,80.971878 142.315765,69.670364 150.693802,60.568592 
	C156.524384,54.234333 163.724152,51.282421 171.957596,49.976902 
	C186.167282,47.723766 199.259369,52.685936 212.689926,55.839359 
	C228.363495,59.519436 244.116074,62.915020 259.931915,65.920700 
	C272.591156,68.326500 285.375000,70.118660 298.144897,71.884026 
	C305.461029,72.895439 312.849731,73.458817 320.223969,73.951927 
	C327.975891,74.470299 335.751221,74.630150 343.513153,75.011116 
	C349.114014,75.286003 354.721954,76.083176 360.305237,75.918327 
	C374.674377,75.494049 389.071899,75.133987 403.385284,73.902107 
	C436.274689,71.071480 468.740112,65.592941 500.375732,55.962471 
	C524.075745,48.747742 547.129517,39.871780 569.198364,28.465031 
	C580.034363,22.864208 591.582581,19.526606 604.057312,19.940334 
	C615.265381,20.312054 625.509583,23.818853 635.324341,28.773649 
	C654.399414,38.403389 673.988403,46.718567 694.388428,53.144703 
	C716.615784,60.146446 739.123535,65.974434 762.255615,68.935249 
	C778.353027,70.995651 794.526733,72.512177 810.695251,73.946243 
	C821.697021,74.922028 832.764465,76.067520 843.774536,75.831810 
	C861.248230,75.457733 878.785522,74.766327 896.138977,72.814156 
	C924.650452,69.606766 953.089905,65.644264 980.897705,58.122795 
	C991.556458,55.239845 1002.296326,52.512360 1013.147217,50.520504 
	C1026.857300,48.003822 1040.111328,48.717358 1051.399658,58.694065 
	C1058.706421,65.151810 1061.841797,73.632347 1062.827515,82.719078 
	C1063.913574,92.731705 1063.947754,102.888748 1063.956055,112.983284 
	C1064.031006,205.295303 1064.000732,297.607422 1064.001953,390.376984 
z"/>
<path fill="#02ADEF" opacity="1.000000" stroke="none" 
	d="
M142.997696,754.622620 
	C153.347488,754.099915 163.698318,754.034729 174.539993,754.479736 
	C175.354095,763.098999 175.149643,771.272217 176.123932,779.302368 
	C177.597336,791.446411 178.850754,803.773743 182.042831,815.521790 
	C189.989380,844.768005 206.944336,869.146606 227.027008,891.175049 
	C246.865463,912.935608 268.088654,933.427185 288.240021,954.910889 
	C311.296661,979.492126 337.820831,999.723999 365.675873,1018.362671 
	C427.139679,1059.489868 491.713806,1095.301270 556.980774,1129.908691 
	C571.214905,1137.456299 585.663269,1144.599731 600.237305,1152.194092 
	C601.694580,1152.303101 603.104370,1152.483398 604.134949,1151.942139 
	C631.443909,1137.595947 658.713684,1123.175537 686.320312,1108.698486 
	C693.032349,1105.104004 699.460876,1101.660400 705.787109,1098.038086 
	C723.035339,1088.162354 740.240417,1078.211304 757.778809,1068.185059 
	C763.116638,1065.178467 768.222473,1062.412231 773.144287,1059.350098 
	C789.175537,1049.375732 805.139526,1039.293335 821.463135,1029.149658 
	C831.298096,1022.721436 840.924927,1016.574707 850.262878,1010.016602 
	C858.367859,1004.324341 866.145813,998.166382 874.395691,992.105103 
	C875.882019,991.097046 877.048645,990.207886 878.198608,989.297729 
	C893.456726,977.222778 907.829163,964.223328 920.492798,949.047363 
	C922.098450,947.974915 923.464600,947.041992 924.612000,945.891052 
	C935.280396,935.188416 946.005371,924.539368 956.505981,913.673767 
	C960.623657,909.413086 964.214172,904.642883 968.342529,899.949097 
	C985.459656,882.929077 999.719543,864.169006 1010.923462,842.694702 
	C1017.613831,829.963440 1023.165344,817.011536 1024.798706,803.099243 
	C1026.706665,786.848816 1027.047485,770.414307 1028.068359,754.059692 
	C1038.737793,754.048950 1049.407349,754.038208 1060.540039,754.096252 
	C1060.333740,768.362183 1060.379639,782.638550 1058.818604,796.736938 
	C1056.732788,815.574890 1051.394653,833.708618 1043.493164,851.002014 
	C1033.506348,872.859741 1020.116699,892.498169 1004.106750,910.340027 
	C992.624329,923.136169 980.963196,935.777832 969.156189,948.275269 
	C957.974731,960.110535 946.694641,971.865967 935.108643,983.302673 
	C916.140198,1002.026672 895.933960,1019.347961 873.633362,1034.013184 
	C845.042725,1052.814697 816.503601,1071.724487 787.382568,1089.679932 
	C765.617310,1103.099976 743.076965,1115.283936 720.678223,1127.649658 
	C698.540527,1139.871338 676.191223,1151.713013 653.845581,1163.553345 
	C644.338013,1168.590942 634.832031,1173.750977 624.914612,1177.865234 
	C612.503906,1183.013916 599.495972,1183.664429 586.385437,1180.112549 
	C569.644775,1175.576904 555.036377,1166.444336 539.980774,1158.378662 
	C512.235901,1143.515015 484.666809,1128.317627 457.170258,1112.997681 
	C418.725250,1091.577515 380.812042,1069.228516 344.660339,1044.098511 
	C326.835480,1031.707886 309.035828,1019.036987 292.720520,1004.781067 
	C272.488098,987.102478 253.654495,967.803040 234.519897,948.896729 
	C225.466248,939.951172 216.910950,930.473999 208.494644,920.916382 
	C193.130951,903.469360 178.811218,885.266174 167.314240,864.903687 
	C156.865036,846.396973 149.489883,826.718628 146.360458,805.908813 
	C143.844131,789.175781 144.018356,772.038208 142.997696,754.622620 
z"/>
<path fill="#274D99" opacity="1.000000" stroke="none" 
	d="
M947.712524,391.119537 
	C833.463989,391.128082 719.215515,391.136627 604.486206,390.635834 
	C604.331055,361.174774 604.854919,332.223663 604.940613,303.271240 
	C605.114746,244.456009 605.052063,185.640076 605.431641,126.907715 
	C613.456055,131.277832 621.013367,135.803818 628.836548,139.810516 
	C664.502197,158.076889 702.085571,170.964127 741.353699,178.756577 
	C754.794189,181.423721 768.479492,182.856674 782.474731,184.898209 
	C807.177063,188.226273 831.584412,188.323288 856.412231,187.916061 
	C857.881104,187.933075 858.952148,187.883621 860.463623,187.888947 
	C861.899780,187.947769 862.902405,188.031113 863.890015,187.943954 
	C878.790649,186.628983 893.722961,185.580582 908.575378,183.848190 
	C917.124573,182.851013 925.543640,180.738297 934.440552,179.108124 
	C939.198303,178.455597 943.536743,177.822662 947.881042,177.646286 
	C947.905396,236.672363 947.937439,295.241882 947.931335,353.811401 
	C947.929993,366.247437 947.789185,378.683502 947.712524,391.119537 
z"/>
<path fill="#2A59BD" opacity="1.000000" stroke="none" 
	d="
M605.087036,126.824440 
	C605.052063,185.640076 605.114746,244.456009 604.940613,303.271240 
	C604.854919,332.223663 604.331055,361.174774 604.020630,390.602753 
	C580.331848,391.117310 556.627808,391.155609 532.414307,390.794556 
	C530.763733,389.515198 529.727112,388.431183 528.466125,387.784973 
	C497.825958,372.083435 467.171875,356.409027 436.498718,340.771942 
	C414.712189,329.665222 392.883148,318.641907 371.095551,307.537231 
	C362.060181,302.932068 353.116669,298.146454 344.073914,293.556091 
	C316.332062,279.473541 288.568237,265.434113 260.786865,251.429733 
	C259.346710,250.703766 257.664154,250.458679 256.062500,249.522842 
	C255.985458,236.702087 255.940384,224.348190 255.933121,211.527496 
	C255.970917,199.820999 255.970917,188.581314 255.970917,178.020782 
	C280.143219,181.000168 303.575134,183.888290 327.467926,186.849213 
	C356.316315,188.617355 384.681122,188.545609 413.422241,185.828827 
	C427.716187,183.885880 441.656586,182.271088 455.463684,179.885025 
	C464.856995,178.261719 474.063660,175.558380 483.741760,173.283417 
	C502.118073,167.508286 520.106384,161.787781 538.458618,156.018707 
	C553.554993,148.994370 568.287415,142.018616 583.370117,134.984772 
	C588.539124,132.146713 593.245728,129.136963 598.233398,126.703079 
	C600.151855,125.766937 602.710083,126.141899 605.007568,126.145325 
	C605.038269,126.371178 605.087036,126.824440 605.087036,126.824440 
z"/>
<path fill="#233B64" opacity="1.000000" stroke="none" 
	d="
M258.925873,754.070557 
	C281.973114,754.040649 305.020386,754.010803 328.573700,754.349976 
	C330.433472,755.834045 331.642120,757.226379 333.162964,758.021667 
	C351.595612,767.660217 370.037079,777.283386 388.549225,786.768127 
	C420.996490,803.392517 453.498505,819.910095 485.970062,836.487183 
	C516.809814,852.231262 547.634338,868.005127 578.478821,883.739929 
	C584.683228,886.904968 590.947083,889.953247 598.335754,893.628479 
	C599.335754,889.750854 600.821289,886.539368 600.885132,883.299866 
	C601.154358,869.639282 600.699707,855.961426 601.106018,842.307617 
	C601.374329,833.290466 602.656921,824.303467 603.568359,814.401428 
	C606.634705,815.397827 608.401855,815.719543 609.928833,816.506836 
	C627.528931,825.580566 645.052612,834.803040 662.674866,843.833252 
	C694.824707,860.307617 727.012085,876.708923 759.212463,893.084290 
	C785.780640,906.595337 812.392395,920.020874 838.975952,933.501892 
	C840.343750,934.195557 841.627136,935.055725 842.949829,935.838440 
	C842.340393,935.976196 841.731018,936.114014 841.121643,936.251770 
	C840.787659,938.511292 840.453674,940.770874 839.954956,943.325684 
	C829.761719,952.465393 819.773254,961.355774 809.688843,970.135925 
	C804.245911,974.874939 798.638855,979.425354 793.078125,984.060791 
	C793.050476,984.060669 793.052917,984.115906 792.727722,984.102051 
	C791.646484,984.740479 790.890503,985.392761 789.951172,986.342163 
	C785.322327,989.775879 780.929382,992.990784 776.416565,996.027344 
	C771.760742,999.160034 766.988281,1002.119263 761.954773,1004.960693 
	C760.322388,1003.796753 759.103088,1002.631714 757.666016,1001.886536 
	C744.812256,995.221375 731.947632,988.575867 719.033630,982.028259 
	C689.927673,967.270996 660.790161,952.576050 631.673340,937.840088 
	C630.491455,937.241882 629.424805,936.416565 628.245056,935.813171 
	C620.450073,931.826050 612.638855,927.870728 603.895813,923.428894 
	C601.600952,941.131592 603.196350,958.265015 599.061462,975.270386 
	C596.794373,974.253479 595.270630,973.652405 593.821350,972.906738 
	C583.612122,967.653564 573.438782,962.330566 563.215698,957.104797 
	C531.202332,940.740601 499.170166,924.413269 467.148865,908.064575 
	C435.869232,892.094543 404.615723,876.073242 373.310394,860.153809 
	C345.558350,846.041260 317.744507,832.050232 289.975586,817.970764 
	C286.271912,816.092957 282.753387,813.838135 279.003143,812.066956 
	C274.385468,809.886108 269.614716,808.029358 264.643433,805.778687 
	C263.907837,803.945740 263.368835,802.383789 262.980927,800.785095 
	C259.252960,785.421570 258.541016,769.792969 258.925873,754.070557 
z"/>
<path fill="#243E6D" opacity="1.000000" stroke="none" 
	d="
M840.119751,943.030396 
	C840.453674,940.770874 840.787659,938.511292 841.121643,936.251770 
	C841.731018,936.114014 842.340393,935.976196 842.949829,935.838440 
	C841.627136,935.055725 840.343750,934.195557 838.975952,933.501892 
	C812.392395,920.020874 785.780640,906.595337 759.212463,893.084290 
	C727.012085,876.708923 694.824707,860.307617 662.674866,843.833252 
	C645.052612,834.803040 627.528931,825.580566 609.928833,816.506836 
	C608.401855,815.719543 606.634705,815.397827 603.568359,814.401428 
	C602.656921,824.303467 601.374329,833.290466 601.106018,842.307617 
	C600.699707,855.961426 601.154358,869.639282 600.885132,883.299866 
	C600.821289,886.539368 599.335754,889.750854 598.335754,893.628479 
	C590.947083,889.953247 584.683228,886.904968 578.478821,883.739929 
	C547.634338,868.005127 516.809814,852.231262 485.970062,836.487183 
	C453.498505,819.910095 420.996490,803.392517 388.549225,786.768127 
	C370.037079,777.283386 351.595612,767.660217 333.162964,758.021667 
	C331.642120,757.226379 330.433472,755.834045 329.042328,754.369019 
	C370.358887,754.005127 411.712891,753.991211 453.573547,754.350464 
	C455.281006,755.768188 456.332428,757.100891 457.705688,757.812988 
	C471.425873,764.927734 485.177063,771.983643 498.961761,778.972839 
	C528.469849,793.934021 558.008179,808.835388 587.518127,823.792847 
	C590.728271,825.419983 593.833435,827.254272 597.571960,829.314758 
	C598.170532,827.181152 598.897339,825.674072 598.978210,824.133057 
	C599.716125,810.081604 600.499878,796.029236 600.944092,781.966858 
	C601.238159,772.658569 600.998352,763.333313 600.997559,754.015686 
	C626.687683,754.001831 652.377808,753.987915 678.588257,754.341064 
	C686.297363,758.757019 693.363159,763.045105 700.696106,766.813354 
	C732.804688,783.313477 764.970764,799.702026 797.154358,816.055664 
	C826.676819,831.057007 856.255432,845.947693 885.790588,860.924072 
	C890.234497,863.177490 894.650635,865.507751 898.927063,868.058167 
	C900.514282,869.004761 901.663269,870.686096 902.871460,872.338806 
	C901.439758,875.043762 900.148682,877.442322 898.867493,879.847290 
	C898.877380,879.853699 898.852600,879.863220 898.514160,879.869507 
	C897.394470,880.564209 896.613281,881.252686 895.545410,882.105042 
	C894.209229,883.328369 893.115723,884.347961 892.117004,885.453064 
	C874.777588,904.639282 857.449951,923.835999 840.119751,943.030396 
z"/>
<path fill="#525B6B" opacity="1.000000" stroke="none" 
	d="
M258.465698,754.031372 
	C258.541016,769.792969 259.252960,785.421570 262.980927,800.785095 
	C263.368835,802.383789 263.907837,803.945740 264.668640,806.178467 
	C265.363800,808.603821 265.630432,810.419922 266.191376,812.140137 
	C272.234161,830.670715 281.342285,847.785278 293.577545,862.729309 
	C313.945007,887.606018 334.790924,912.160950 356.668579,935.705505 
	C370.285278,950.359741 385.392731,963.905151 401.188538,976.205017 
	C444.204407,1009.700439 490.499176,1038.409424 537.134888,1066.536499 
	C549.061279,1073.729614 561.045349,1080.827148 572.863831,1088.298950 
	C572.933899,1090.326050 572.719666,1092.224854 573.418213,1093.687866 
	C579.922302,1107.311401 586.716003,1120.797852 593.135193,1134.460327 
	C595.790894,1140.112671 597.741638,1146.096313 600.013000,1151.929199 
	C585.663269,1144.599731 571.214905,1137.456299 556.980774,1129.908691 
	C491.713806,1095.301270 427.139679,1059.489868 365.675873,1018.362671 
	C337.820831,999.723999 311.296661,979.492126 288.240021,954.910889 
	C268.088654,933.427185 246.865463,912.935608 227.027008,891.175049 
	C206.944336,869.146606 189.989380,844.768005 182.042831,815.521790 
	C178.850754,803.773743 177.597336,791.446411 176.123932,779.302368 
	C175.149643,771.272217 175.354095,763.098999 175.005249,754.527466 
	C202.654953,754.040710 230.330231,754.016418 258.465698,754.031372 
z"/>
<path fill="#A2E92A" opacity="1.000000" stroke="none" 
	d="
M559.712891,657.789185 
	C546.598511,664.396179 533.018127,667.743530 518.794556,669.084167 
	C488.685089,671.922119 461.589508,664.808350 438.405670,644.975342 
	C424.054047,632.697998 415.462372,616.716492 410.066437,598.812378 
	C405.885773,584.940613 404.172729,570.692444 405.129242,556.376587 
	C407.487640,521.078979 420.020874,490.849152 450.896484,470.724396 
	C464.188507,462.060638 479.012573,457.876740 494.764771,455.811188 
	C510.326111,453.770660 525.481262,455.539978 540.229187,459.503021 
	C567.998108,466.965057 588.048035,484.308289 599.937073,510.568207 
	C605.278564,522.366211 608.286377,534.738647 609.269897,547.876648 
	C610.305786,561.713379 610.494202,575.415771 607.919556,588.947388 
	C602.228577,618.856812 587.655090,642.855774 559.712891,657.789185 
M524.893433,498.313293 
	C523.750671,498.144806 522.575073,498.095245 521.469910,497.790375 
	C497.386475,491.147278 472.296692,501.576843 461.668213,524.326111 
	C449.858307,549.604065 449.777679,575.180969 461.591461,600.316101 
	C477.122192,633.359375 519.648499,637.224304 543.326477,615.376526 
	C556.598633,603.130310 560.888977,586.763550 561.850586,569.595764 
	C562.627197,555.730652 561.692871,541.972351 556.174866,528.669922 
	C550.133911,514.106567 540.632202,503.755432 524.893433,498.313293 
z"/>
<path fill="#A3E92A" opacity="1.000000" stroke="none" 
	d="
M815.022461,661.289246 
	C815.533569,662.553162 815.889832,663.439636 816.579590,665.155884 
	C812.565247,665.155884 809.158936,665.155884 805.752625,665.155884 
	C793.586731,665.155884 781.419067,665.041077 769.256226,665.232300 
	C766.005127,665.283386 764.325439,664.235962 762.604004,661.411499 
	C749.360779,639.683167 735.806091,618.144958 722.516602,596.444580 
	C719.843323,592.079468 716.489380,590.491821 711.448608,590.904358 
	C706.184570,591.335205 700.857849,591.000610 695.063721,591.000610 
	C695.063721,615.788757 695.063721,640.190674 695.063721,664.871704 
	C679.474731,664.871704 664.386169,664.871704 648.725830,664.871704 
	C648.617188,663.113403 648.414856,661.362366 648.414429,659.611328 
	C648.398376,595.948853 648.429688,532.286377 648.336914,468.624054 
	C648.330688,464.349670 648.873657,462.014008 654.095032,461.777527 
	C663.296631,461.360748 672.433289,459.571686 681.635376,459.092865 
	C695.381836,458.377563 709.186707,457.613159 722.920837,458.117828 
	C741.710815,458.808258 760.113281,462.005310 776.676086,471.866333 
	C795.053833,482.807983 803.735840,499.309784 803.913696,520.366882 
	C803.976196,527.770447 803.827881,535.352173 802.342896,542.557251 
	C798.731323,560.079834 786.840576,571.097595 771.524353,578.974426 
	C769.935730,579.791382 768.311584,580.539246 766.295105,581.517456 
	C785.427856,606.518982 801.410583,632.950684 815.022461,661.289246 
M748.784180,544.323242 
	C757.331909,536.375061 757.271851,526.264160 755.085449,516.128418 
	C753.065979,506.766449 745.577454,502.306580 737.000977,500.173248 
	C723.325439,496.771545 709.424316,495.930511 695.253296,498.332703 
	C695.253296,516.809021 695.253296,535.178772 695.253296,554.437500 
	C704.404236,553.909912 713.274048,553.536377 722.119629,552.850769 
	C731.397400,552.131592 740.426270,550.385925 748.784180,544.323242 
z"/>
<path fill="#A2E92A" opacity="1.000000" stroke="none" 
	d="
M882.300293,668.971802 
	C871.143555,666.373718 860.380066,663.977661 849.764648,661.045959 
	C845.324280,659.819641 841.218628,657.406311 836.921143,655.628296 
	C834.342957,654.561523 833.503662,653.300049 834.626526,650.308044 
	C838.712158,639.420654 842.446167,628.401428 846.255066,617.595459 
	C855.649658,620.800903 864.710571,624.455444 874.078857,626.960876 
	C889.268127,631.023132 904.747070,631.706848 920.102356,627.716064 
	C927.328247,625.838074 933.557373,622.055603 934.863892,613.875427 
	C936.309998,604.821411 934.289124,596.447266 925.617981,591.992981 
	C915.463562,586.776855 904.876343,582.329895 894.248962,578.125366 
	C878.823547,572.022583 863.028687,566.705078 851.294678,554.096069 
	C842.395996,544.533752 837.067810,533.374512 837.044556,520.120361 
	C836.984253,485.720062 856.179504,462.948334 890.469604,457.051544 
	C907.025757,454.204376 923.710938,453.875610 940.106079,458.032257 
	C950.123413,460.572021 959.890015,464.107239 969.752136,467.248993 
	C972.808655,468.222717 973.702393,469.857239 972.367798,473.244049 
	C968.189880,483.846252 964.420044,494.609253 960.354065,505.686035 
	C955.900452,503.839539 951.813721,502.105377 947.697021,500.445343 
	C932.181091,494.188660 916.075623,493.752563 899.854492,496.250702 
	C892.753174,497.344299 886.928650,501.077423 885.256897,508.791504 
	C883.585266,516.504944 885.632263,523.431152 892.462158,527.558960 
	C899.238220,531.654297 906.611633,534.825623 913.901245,537.992065 
	C926.212341,543.339539 938.918640,547.835449 950.992493,553.656372 
	C966.332825,561.052124 978.013611,572.472473 981.272400,589.824280 
	C984.847900,608.862000 985.050964,627.823120 972.452820,644.401367 
	C963.683411,655.941284 951.472473,662.053955 937.780823,665.644165 
	C922.943115,669.534912 907.801208,670.374451 892.557251,669.960693 
	C889.282654,669.871826 886.020996,669.304504 882.300293,668.971802 
z"/>
<path fill="#A2E92A" opacity="1.000000" stroke="none" 
	d="
M283.868347,513.903503 
	C273.420197,527.067322 269.696991,542.054688 268.932068,558.171814 
	C268.323914,570.985657 269.966919,583.635193 274.461945,595.342285 
	C281.160889,612.789612 294.480896,623.445740 313.156494,627.095093 
	C333.860992,631.140869 353.509125,627.134827 372.780518,619.807129 
	C374.796997,619.040344 376.737427,618.073975 378.718506,617.212524 
	C378.861267,617.150513 379.048370,617.190613 379.793152,617.157471 
	C383.781464,628.719421 387.906250,640.417664 391.706818,652.220337 
	C391.990143,653.100098 390.227570,655.268311 388.947968,655.924194 
	C376.403015,662.353882 362.972198,666.181274 349.054535,667.825745 
	C338.250214,669.102417 327.245483,670.480164 316.459839,669.787781 
	C281.418518,667.538513 251.193695,656.008057 233.697906,622.640137 
	C227.112503,610.080505 223.000595,596.696655 222.079926,582.545898 
	C221.326202,570.961243 220.781418,559.311279 221.107544,547.717407 
	C222.197342,508.976135 251.731384,471.431030 289.804626,460.140656 
	C310.271637,454.071259 330.924927,453.763458 351.981750,457.690186 
	C364.071259,459.944641 375.579468,463.148590 386.303589,469.025696 
	C387.517334,469.690826 388.853149,472.247681 388.476654,473.373688 
	C384.632782,484.869598 380.445831,496.250763 376.284515,507.860107 
	C369.755859,505.418640 363.481323,502.955841 357.127075,500.719391 
	C342.449524,495.553558 327.252930,496.098999 312.213348,497.785553 
	C300.928253,499.051117 291.645569,505.102203 283.868347,513.903503 
z"/>
<path fill="#254177" opacity="1.000000" stroke="none" 
	d="
M903.012085,872.032410 
	C901.663269,870.686096 900.514282,869.004761 898.927063,868.058167 
	C894.650635,865.507751 890.234497,863.177490 885.790588,860.924072 
	C856.255432,845.947693 826.676819,831.057007 797.154358,816.055664 
	C764.970764,799.702026 732.804688,783.313477 700.696106,766.813354 
	C693.363159,763.045105 686.297363,758.757019 679.056763,754.364929 
	C767.375610,754.001892 855.746277,753.982056 944.575684,754.462036 
	C944.028442,768.178101 943.974060,781.551270 941.824097,794.578674 
	C936.925354,824.261414 921.733337,849.106628 903.012085,872.032410 
z"/>
<path fill="#2954B0" opacity="1.000000" stroke="none" 
	d="
M256.094452,249.989685 
	C257.664154,250.458679 259.346710,250.703766 260.786865,251.429733 
	C288.568237,265.434113 316.332062,279.473541 344.073914,293.556091 
	C353.116669,298.146454 362.060181,302.932068 371.095551,307.537231 
	C392.883148,318.641907 414.712189,329.665222 436.498718,340.771942 
	C467.171875,356.409027 497.825958,372.083435 528.466125,387.784973 
	C529.727112,388.431183 530.763733,389.515198 531.946350,390.752319 
	C488.300323,391.129669 444.612885,391.149872 400.416473,390.781738 
	C397.801178,388.866058 395.846954,387.046143 393.563782,385.858734 
	C378.943451,378.255310 364.275513,370.742157 349.576813,363.290894 
	C320.169678,348.383392 290.738403,333.523407 261.292175,318.693268 
	C259.698944,317.890839 257.877228,317.542053 256.112122,316.517029 
	C256.073059,294.031219 256.083771,272.010468 256.094452,249.989685 
z"/>
<path fill="#575E6E" opacity="1.000000" stroke="none" 
	d="
M172.577087,391.072510 
	C172.113388,327.330627 172.106918,263.632019 172.525467,199.475708 
	C174.284622,200.309570 176.110779,201.361267 176.875702,202.930313 
	C183.505417,216.529251 189.865219,230.259521 196.457306,243.877151 
	C208.780136,269.333038 221.250565,294.717529 233.565720,320.177155 
	C238.848801,331.099060 243.747314,342.208832 249.137817,353.075897 
	C250.904861,356.638123 253.672440,359.704041 256.000305,363.465485 
	C256.027802,372.976196 256.037476,382.018341 256.047180,391.060486 
	C228.376221,391.078918 200.705276,391.097321 172.577087,391.072510 
z"/>
<path fill="#9AA0AB" opacity="1.000000" stroke="none" 
	d="
M1010.711609,842.988647 
	C999.719543,864.169006 985.459656,882.929077 968.192383,899.630493 
	C966.723511,897.758728 965.575745,896.112305 964.702148,894.331360 
	C958.764954,882.227722 952.826355,870.124146 947.006836,857.963806 
	C942.557800,848.667358 938.283081,839.287537 933.985352,829.585083 
	C945.780701,805.523254 950.858887,780.405762 950.013672,754.029968 
	C955.037354,753.979736 960.061096,753.929504 965.548950,754.341431 
	C966.583130,756.343506 967.043091,757.935303 967.740356,759.415283 
	C973.749207,772.167969 979.741089,784.929199 985.855408,797.631409 
	C992.622375,811.689697 999.447632,825.721252 1006.447021,839.664368 
	C1007.177429,841.119385 1009.257629,841.896851 1010.711609,842.988647 
z"/>
<path fill="#244174" opacity="1.000000" stroke="none" 
	d="
M600.529602,753.991821 
	C600.998352,763.333313 601.238159,772.658569 600.944092,781.966858 
	C600.499878,796.029236 599.716125,810.081604 598.978210,824.133057 
	C598.897339,825.674072 598.170532,827.181152 597.571960,829.314758 
	C593.833435,827.254272 590.728271,825.419983 587.518127,823.792847 
	C558.008179,808.835388 528.469849,793.934021 498.961761,778.972839 
	C485.177063,771.983643 471.425873,764.927734 457.705688,757.812988 
	C456.332428,757.100891 455.281006,755.768188 454.042023,754.373169 
	C502.689758,754.004517 551.375732,753.986267 600.529602,753.991821 
z"/>
<path fill="#2850A3" opacity="1.000000" stroke="none" 
	d="
M256.510315,391.091187 
	C256.037476,382.018341 256.027802,372.976196 256.017944,362.997437 
	C256.065796,347.034576 256.113831,332.008331 256.161896,316.982056 
	C257.877228,317.542053 259.698944,317.890839 261.292175,318.693268 
	C290.738403,333.523407 320.169678,348.383392 349.576813,363.290894 
	C364.275513,370.742157 378.943451,378.255310 393.563782,385.858734 
	C395.846954,387.046143 397.801178,388.866058 399.948120,390.746216 
	C352.316956,391.106567 304.645203,391.114197 256.510315,391.091187 
z"/>
<path fill="#CBD0D7" opacity="1.000000" stroke="none" 
	d="
M1031.110107,338.009399 
	C1031.182251,355.369904 1031.254395,372.730377 1031.362793,390.558685 
	C1027.565186,391.147766 1023.731384,391.269043 1019.446411,390.870300 
	C1018.444397,388.468384 1018.145325,386.464722 1017.303284,384.723602 
	C1009.776611,369.160461 1002.133484,353.653717 994.567322,338.109619 
	C989.403442,327.500885 984.300171,316.862640 979.183533,306.230988 
	C971.546936,290.363281 963.955750,274.473450 956.222717,258.652863 
	C955.667725,257.517426 954.113159,256.870544 952.998169,255.528748 
	C952.983276,231.707123 952.993652,208.353287 953.356506,185.038300 
	C954.679199,186.127869 955.963867,187.023224 956.571472,188.253143 
	C963.199402,201.667694 969.765320,215.113434 976.263550,228.591431 
	C993.297119,263.920929 1010.268188,299.280640 1027.371582,334.576202 
	C1028.057617,335.992004 1029.839111,336.877045 1031.110107,338.009399 
z"/>
<path fill="#A3A9B3" opacity="1.000000" stroke="none" 
	d="
M1010.923462,842.694702 
	C1009.257629,841.896851 1007.177429,841.119385 1006.447021,839.664368 
	C999.447632,825.721252 992.622375,811.689697 985.855408,797.631409 
	C979.741089,784.929199 973.749207,772.167969 967.740356,759.415283 
	C967.043091,757.935303 966.583130,756.343506 966.009155,754.429382 
	C986.381958,753.994141 1006.758789,753.933044 1027.602051,753.965820 
	C1027.047485,770.414307 1026.706665,786.848816 1024.798706,803.099243 
	C1023.165344,817.011536 1017.613831,829.963440 1010.923462,842.694702 
z"/>
<path fill="#C5CAD2" opacity="1.000000" stroke="none" 
	d="
M953.023315,255.996521 
	C954.113159,256.870544 955.667725,257.517426 956.222717,258.652863 
	C963.955750,274.473450 971.546936,290.363281 979.183533,306.230988 
	C984.300171,316.862640 989.403442,327.500885 994.567322,338.109619 
	C1002.133484,353.653717 1009.776611,369.160461 1017.303284,384.723602 
	C1018.145325,386.464722 1018.444397,388.468384 1018.992798,390.755554 
	C1009.629395,391.236237 1000.268616,391.311584 990.447998,390.884216 
	C989.878662,389.730652 989.914429,389.009552 989.638611,388.439117 
	C978.358337,365.108704 967.066528,341.783722 955.690857,318.499817 
	C955.187622,317.469727 953.887756,316.828857 952.946167,315.537476 
	C952.963379,295.377686 952.993347,275.687103 953.023315,255.996521 
z"/>
<path fill="#C0C5CD" opacity="1.000000" stroke="none" 
	d="
M952.958984,316.006653 
	C953.887756,316.828857 955.187622,317.469727 955.690857,318.499817 
	C967.066528,341.783722 978.358337,365.108704 989.638611,388.439117 
	C989.914429,389.009552 989.878662,389.730652 989.989624,390.771515 
	C977.936523,391.234100 965.881836,391.306641 953.377380,390.803741 
	C952.938049,365.487762 952.948547,340.747223 952.958984,316.006653 
z"/>
<path fill="#8C96A6" opacity="1.000000" stroke="none" 
	d="
M952.946167,315.537476 
	C952.948547,340.747223 952.938049,365.487762 952.908875,390.711853 
	C951.454346,391.214722 950.018555,391.234039 948.147644,391.186462 
	C947.789185,378.683502 947.929993,366.247437 947.931335,353.811401 
	C947.937439,295.241882 947.905396,236.672363 948.239990,177.474060 
	C951.711975,175.196259 953.130981,176.097397 952.950073,179.653717 
	C952.859680,181.430115 952.979370,183.217194 953.004089,184.999451 
	C952.993652,208.353287 952.983276,231.707123 952.998108,255.528748 
	C952.993347,275.687103 952.963379,295.377686 952.946167,315.537476 
z"/>
<path fill="#6C788A" opacity="1.000000" stroke="none" 
	d="
M949.602600,753.972412 
	C950.858887,780.405762 945.780701,805.523254 933.691040,829.757324 
	C926.988098,840.686340 920.991028,851.325867 914.152893,861.394104 
	C909.685547,867.971680 903.998352,873.720703 898.857544,879.840820 
	C900.148682,877.442322 901.439758,875.043762 902.871460,872.338806 
	C921.733337,849.106628 936.925354,824.261414 941.824097,794.578674 
	C943.974060,781.551270 944.028442,768.178101 945.046997,754.496338 
	C946.437012,753.992065 947.814270,753.953430 949.602600,753.972412 
z"/>
<path fill="#D2D7DE" opacity="1.000000" stroke="none" 
	d="
M953.356506,185.038300 
	C952.979370,183.217194 952.859680,181.430115 952.950073,179.653717 
	C953.130981,176.097397 951.711975,175.196259 948.234131,177.017517 
	C943.536743,177.822662 939.198303,178.455597 934.430054,178.720474 
	C933.604065,177.101135 933.354126,175.779358 932.789978,174.609070 
	C922.849304,153.989502 912.825256,133.409943 902.963318,112.752907 
	C901.865784,110.454102 901.645081,107.736679 901.017822,105.213364 
	C944.427795,100.266464 987.294006,92.674950 1029.624023,78.928993 
	C1030.841064,78.966972 1031.327026,78.995842 1031.812866,79.024719 
	C1031.858154,113.650772 1031.941406,148.276825 1031.940063,182.902878 
	C1031.938110,231.682739 1031.882324,280.462585 1031.811890,329.242432 
	C1031.808105,331.890320 1031.457397,334.537720 1031.189209,337.597351 
	C1029.839111,336.877045 1028.057617,335.992004 1027.371582,334.576202 
	C1010.268188,299.280640 993.297119,263.920929 976.263550,228.591431 
	C969.765320,215.113434 963.199402,201.667694 956.571472,188.253143 
	C955.963867,187.023224 954.679199,186.127869 953.356506,185.038300 
z"/>
<path fill="#5C6473" opacity="1.000000" stroke="none" 
	d="
M256.112122,316.517029 
	C256.113831,332.008331 256.065796,347.034576 256.000122,362.528870 
	C253.672440,359.704041 250.904861,356.638123 249.137817,353.075897 
	C243.747314,342.208832 238.848801,331.099060 233.565720,320.177155 
	C221.250565,294.717529 208.780136,269.333038 196.457306,243.877151 
	C189.865219,230.259521 183.505417,216.529251 176.875702,202.930313 
	C176.110779,201.361267 174.284622,200.309570 172.595779,199.012589 
	C172.176117,174.415649 172.100616,149.824158 172.050323,125.232620 
	C172.021759,111.272888 172.034424,97.313080 172.028702,83.353302 
	C172.028046,81.737671 172.028595,80.122032 172.028595,78.019447 
	C179.523682,80.367989 186.438385,82.534668 193.682098,85.262634 
	C197.344757,93.224915 200.513290,100.705582 204.040359,108.013191 
	C220.149399,141.388885 236.343719,174.723495 252.582367,208.036301 
	C253.314041,209.537277 254.774384,210.683060 255.895325,211.994278 
	C255.940384,224.348190 255.985458,236.702087 256.062500,249.522858 
	C256.083771,272.010468 256.073059,294.031219 256.112122,316.517029 
z"/>
<path fill="#646C7B" opacity="1.000000" stroke="none" 
	d="
M255.933121,211.527496 
	C254.774384,210.683060 253.314041,209.537277 252.582367,208.036301 
	C236.343719,174.723495 220.149399,141.388885 204.040359,108.013191 
	C200.513290,100.705582 197.344757,93.224915 194.004272,85.452621 
	C208.145416,88.400414 222.205933,92.173439 236.463928,94.921844 
	C253.650726,98.234810 271.005188,100.677864 288.648743,104.065155 
	C289.401703,105.887115 289.642609,107.213852 290.206696,108.384911 
	C299.724487,128.145203 309.351532,147.853210 318.791168,167.650604 
	C321.775177,173.908875 324.281921,180.394714 327.007050,186.776413 
	C303.575134,183.888290 280.143219,181.000168 255.970917,178.020782 
	C255.970917,188.581314 255.970917,199.820999 255.933121,211.527496 
z"/>
<path fill="#6F7684" opacity="1.000000" stroke="none" 
	d="
M327.467926,186.849213 
	C324.281921,180.394714 321.775177,173.908875 318.791168,167.650604 
	C309.351532,147.853210 299.724487,128.145203 290.206696,108.384911 
	C289.642609,107.213852 289.401703,105.887115 289.008514,104.239456 
	C304.255249,105.220505 319.480347,107.065231 334.759491,107.829681 
	C348.497803,108.517044 362.295502,108.018646 376.539795,108.467163 
	C377.367584,109.984283 377.599609,111.137070 378.095642,112.162064 
	C389.083893,134.867432 400.115692,157.551712 411.084961,180.266235 
	C411.932465,182.021194 412.379028,183.969788 413.011963,185.828400 
	C384.681122,188.545609 356.316315,188.617355 327.467926,186.849213 
z"/>
<path fill="#C4C9D1" opacity="1.000000" stroke="none" 
	d="
M900.574951,105.143799 
	C901.645081,107.736679 901.865784,110.454102 902.963318,112.752907 
	C912.825256,133.409943 922.849304,153.989502 932.789978,174.609070 
	C933.354126,175.779358 933.604065,177.101135 934.010742,178.740067 
	C925.543640,180.738297 917.124573,182.851013 908.575378,183.848190 
	C893.722961,185.580582 878.790649,186.628983 863.890015,187.943954 
	C862.902405,188.031113 861.899780,187.947769 860.448486,187.514923 
	C858.956055,184.302307 858.132690,181.415695 856.848877,178.750961 
	C846.327515,156.912796 835.696716,135.127380 825.188965,113.282753 
	C824.431885,111.708961 824.381958,109.795013 824.003235,108.039230 
	C831.302795,108.028488 838.616333,108.305168 845.899048,107.949013 
	C862.658020,107.129433 879.401550,105.995087 896.152832,105.013100 
	C897.473511,104.935677 898.805420,105.049362 900.574951,105.143799 
z"/>
<path fill="#B5BBC4" opacity="1.000000" stroke="none" 
	d="
M823.541992,107.995529 
	C824.381958,109.795013 824.431885,111.708961 825.188965,113.282753 
	C835.696716,135.127380 846.327515,156.912796 856.848877,178.750961 
	C858.132690,181.415695 858.956055,184.302307 860.007935,187.460144 
	C858.952148,187.883621 857.881104,187.933075 856.099121,187.647400 
	C832.603455,186.178421 809.818848,185.044556 787.017700,183.538269 
	C786.575745,181.919495 786.276306,180.612061 785.706177,179.435852 
	C774.101196,155.495102 762.432800,131.584930 750.890198,107.614220 
	C749.845642,105.444878 749.571045,102.904770 748.938904,100.536865 
	C769.233643,102.709877 789.525208,104.912704 809.825500,107.032372 
	C814.227905,107.492043 818.661499,107.653191 823.541992,107.995529 
z"/>
<path fill="#7A818E" opacity="1.000000" stroke="none" 
	d="
M413.422272,185.828827 
	C412.379028,183.969788 411.932465,182.021194 411.084961,180.266235 
	C400.115692,157.551712 389.083893,134.867432 378.095642,112.162064 
	C377.599609,111.137070 377.367584,109.984283 377.004913,108.525620 
	C400.671844,105.980865 424.346405,103.801498 448.489899,102.007584 
	C449.630219,104.243477 450.161774,106.159615 450.995422,107.933815 
	C456.911926,120.525604 462.749359,133.157730 468.895264,145.637512 
	C473.495575,154.978958 478.518829,164.112122 483.353760,173.338013 
	C474.063660,175.558380 464.856995,178.261719 455.463684,179.885025 
	C441.656586,182.271088 427.716187,183.885880 413.422272,185.828827 
z"/>
<path fill="#AAAFB9" opacity="1.000000" stroke="none" 
	d="
M748.604004,100.406624 
	C749.571045,102.904770 749.845642,105.444878 750.890198,107.614220 
	C762.432800,131.584930 774.101196,155.495102 785.706177,179.435852 
	C786.276306,180.612061 786.575745,181.919495 786.599976,183.567078 
	C784.810303,183.966354 783.421814,183.964340 781.626221,183.936768 
	C773.546326,182.618683 765.822388,181.570084 758.212646,179.976562 
	C746.739502,177.574005 735.346069,174.790802 723.912231,171.797729 
	C719.829041,162.728485 715.815247,154.000793 711.662781,145.339584 
	C702.848083,126.953445 693.932678,108.615517 685.154358,90.212097 
	C684.403687,88.638290 684.367249,86.723801 683.999023,84.967575 
	C705.422363,90.070511 726.845703,95.173439 748.604004,100.406624 
z"/>
<path fill="#838A97" opacity="1.000000" stroke="none" 
	d="
M483.741760,173.283417 
	C478.518829,164.112122 473.495575,154.978958 468.895264,145.637512 
	C462.749359,133.157730 456.911926,120.525604 450.995422,107.933815 
	C450.161774,106.159615 449.630219,104.243477 448.931488,101.972122 
	C467.672546,97.380783 486.440887,93.210358 505.611694,89.413452 
	C506.212708,90.585106 506.279572,91.446732 506.629150,92.172112 
	C516.516907,112.690353 526.427124,133.197784 536.365540,153.691559 
	C536.786255,154.558975 537.511414,155.278717 538.094727,156.067261 
	C520.106384,161.787781 502.118073,167.508286 483.741760,173.283417 
z"/>
<path fill="#A1A7B2" opacity="1.000000" stroke="none" 
	d="
M683.635132,84.915298 
	C684.367249,86.723801 684.403687,88.638290 685.154358,90.212097 
	C693.932678,108.615517 702.848083,126.953445 711.662781,145.339584 
	C715.815247,154.000793 719.829041,162.728485 723.500977,171.764023 
	C706.386353,166.761276 689.676575,161.420547 672.971802,155.696869 
	C672.581299,154.061066 672.334290,152.736420 671.768188,151.566086 
	C660.839478,128.970871 649.777344,106.439499 638.976501,83.783531 
	C635.936035,77.405716 633.639343,70.673302 631.001526,64.103516 
	C648.424744,71.023338 665.847961,77.943169 683.635132,84.915298 
z"/>
<path fill="#8C939F" opacity="1.000000" stroke="none" 
	d="
M538.458618,156.018692 
	C537.511414,155.278717 536.786255,154.558975 536.365540,153.691559 
	C526.427124,133.197784 516.516907,112.690353 506.629150,92.172112 
	C506.279572,91.446732 506.212708,90.585106 506.010986,89.411774 
	C521.773499,83.468918 537.539124,77.901276 553.654419,72.645432 
	C554.370178,74.381889 554.511902,75.914230 555.136047,77.215103 
	C564.393005,96.509056 573.714050,115.772316 583.019836,135.042862 
	C568.287415,142.018616 553.554993,148.994370 538.458618,156.018692 
z"/>
<path fill="#9BA1AC" opacity="1.000000" stroke="none" 
	d="
M630.668823,63.953568 
	C633.639343,70.673302 635.936035,77.405716 638.976501,83.783531 
	C649.777344,106.439499 660.839478,128.970871 671.768188,151.566086 
	C672.334290,152.736420 672.581299,154.061066 672.603699,155.639374 
	C657.475891,149.000702 642.721191,142.036545 627.944641,134.718658 
	C624.566711,128.135040 621.003113,122.006783 617.894714,115.655739 
	C609.500061,98.503975 601.337097,81.238983 592.981689,64.067780 
	C591.701904,61.437576 589.889404,59.066563 588.323303,56.575665 
	C591.724182,54.614246 594.967834,52.242233 598.588745,50.855286 
	C600.558411,50.100845 603.472046,50.373951 605.437988,51.296249 
	C613.843262,55.239582 622.054321,59.597134 630.668823,63.953568 
z"/>
<path fill="#959BA6" opacity="1.000000" stroke="none" 
	d="
M588.003479,56.647724 
	C589.889404,59.066563 591.701904,61.437576 592.981689,64.067780 
	C601.337097,81.238983 609.500061,98.503975 617.894714,115.655739 
	C621.003113,122.006783 624.566711,128.135040 627.588501,134.664734 
	C621.357605,131.661072 615.458984,128.361084 609.565430,125.051918 
	C607.782715,124.050980 605.958252,122.727654 604.976807,125.919472 
	C602.710083,126.141899 600.151855,125.766937 598.233398,126.703079 
	C593.245728,129.136963 588.539124,132.146713 583.370117,134.984772 
	C573.714050,115.772316 564.393005,96.509056 555.136047,77.215103 
	C554.511902,75.914230 554.370178,74.381889 554.005127,72.580002 
	C565.231934,67.041794 576.457825,61.880791 588.003479,56.647724 
z"/>
<path fill="#BED3E1" opacity="1.000000" stroke="none" 
	d="
M1031.771484,78.727440 
	C1031.327026,78.995842 1030.841064,78.966972 1029.991943,78.881989 
	C1030.329224,78.693970 1031.029663,78.562065 1031.771484,78.727440 
z"/>
<path fill="#8D939F" opacity="1.000000" stroke="none" 
	d="
M898.867432,879.847290 
	C903.998352,873.720703 909.685547,867.971680 914.152893,861.394104 
	C920.991028,851.325867 926.988098,840.686340 933.636536,830.117065 
	C938.283081,839.287537 942.557800,848.667358 947.006836,857.963806 
	C952.826355,870.124146 958.764954,882.227722 964.702148,894.331360 
	C965.575745,896.112305 966.723511,897.758728 967.894531,899.786011 
	C964.214172,904.642883 960.623657,909.413086 956.505981,913.673767 
	C946.005371,924.539368 935.280396,935.188416 924.612000,945.891052 
	C923.464600,947.041992 922.098450,947.974915 920.171875,948.887573 
	C919.063354,948.283081 918.469360,947.872437 918.191528,947.306519 
	C910.576660,931.797058 902.935730,916.299683 895.455322,900.725403 
	C893.960083,897.612183 893.097717,894.195007 892.090698,890.617554 
	C893.837891,887.888000 895.437805,885.458862 897.332886,882.880981 
	C898.036316,881.775940 898.444458,880.819580 898.852661,879.863220 
	C898.852600,879.863220 898.877380,879.853699 898.867432,879.847290 
z"/>
<path fill="#5B6373" opacity="1.000000" stroke="none" 
	d="
M600.237305,1152.194092 
	C597.741638,1146.096313 595.790894,1140.112671 593.135193,1134.460327 
	C586.716003,1120.797852 579.922302,1107.311401 573.418213,1093.687866 
	C572.719666,1092.224854 572.933899,1090.326050 573.184143,1088.434082 
	C582.129089,1093.002930 590.558472,1097.873413 599.158020,1102.422241 
	C600.513062,1103.139038 602.988892,1103.017456 604.354858,1102.241699 
	C625.969482,1089.967285 647.487305,1077.522339 669.020325,1065.539307 
	C669.742065,1069.116333 670.009094,1072.474487 671.294128,1075.382690 
	C674.098877,1081.730347 677.616455,1087.761230 680.468201,1094.090332 
	C682.611328,1098.846558 684.170898,1103.865723 685.990234,1108.767822 
	C658.713684,1123.175537 631.443909,1137.595947 604.134949,1151.942139 
	C603.104370,1152.483398 601.694580,1152.303101 600.237305,1152.194092 
z"/>
<path fill="#656D7B" opacity="1.000000" stroke="none" 
	d="
M686.320312,1108.698486 
	C684.170898,1103.865723 682.611328,1098.846558 680.468201,1094.090332 
	C677.616455,1087.761230 674.098877,1081.730347 671.294128,1075.382690 
	C670.009094,1072.474487 669.742065,1069.116333 669.320435,1065.364990 
	C674.867554,1061.559814 680.126282,1058.382080 685.344177,1055.138794 
	C702.568420,1044.432861 719.778015,1033.703247 736.995972,1023.384277 
	C738.991333,1028.839722 740.722839,1034.016479 743.031372,1038.921631 
	C747.675354,1048.789429 752.633850,1058.509155 757.462585,1068.290039 
	C740.240417,1078.211304 723.035339,1088.162354 705.787109,1098.038086 
	C699.460876,1101.660400 693.032349,1105.104004 686.320312,1108.698486 
z"/>
<path fill="#6F7685" opacity="1.000000" stroke="none" 
	d="
M757.778809,1068.185059 
	C752.633850,1058.509155 747.675354,1048.789429 743.031372,1038.921631 
	C740.722839,1034.016479 738.991333,1028.839722 737.199341,1023.120117 
	C745.688904,1016.687805 753.977905,1010.921021 762.266846,1005.154297 
	C766.988281,1002.119263 771.760742,999.160034 776.416565,996.027344 
	C780.929382,992.990784 785.322327,989.775879 790.285645,986.325012 
	C791.553162,985.379150 792.303040,984.747498 793.052917,984.115845 
	C793.052917,984.115906 793.050476,984.060669 793.422607,984.041809 
	C795.537292,983.024658 797.279785,982.026306 799.023071,981.412231 
	C806.392334,997.615234 813.760864,1013.433899 821.129456,1029.252563 
	C805.139526,1039.293335 789.175537,1049.375732 773.144287,1059.350098 
	C768.222473,1062.412231 763.116638,1065.178467 757.778809,1068.185059 
z"/>
<path fill="#838A96" opacity="1.000000" stroke="none" 
	d="
M891.943481,890.918091 
	C893.097717,894.195007 893.960083,897.612183 895.455322,900.725403 
	C902.935730,916.299683 910.576660,931.797058 918.191528,947.306519 
	C918.469360,947.872437 919.063354,948.283081 919.830933,948.925903 
	C907.829163,964.223328 893.456726,977.222778 878.198608,989.297729 
	C877.048645,990.207886 875.882019,991.097046 874.346558,991.726196 
	C867.355835,977.733826 860.542847,964.101440 854.250854,950.232666 
	C852.402527,946.158630 852.032104,941.414124 851.133362,936.677368 
	C852.719543,934.564392 854.074219,932.677612 855.608459,930.950378 
	C861.432129,924.394104 867.285217,917.863464 873.181946,911.372864 
	C879.403381,904.525146 885.687073,897.734009 891.943481,890.918091 
z"/>
<path fill="#7A818E" opacity="1.000000" stroke="none" 
	d="
M850.984436,936.976929 
	C852.032104,941.414124 852.402527,946.158630 854.250854,950.232666 
	C860.542847,964.101440 867.355835,977.733826 874.019165,991.835327 
	C866.145813,998.166382 858.367859,1004.324341 850.262878,1010.016602 
	C840.924927,1016.574707 831.298096,1022.721436 821.463135,1029.149658 
	C813.760864,1013.433899 806.392334,997.615234 799.321838,981.256470 
	C809.711792,972.687683 819.985535,964.874390 829.835754,956.559387 
	C837.169556,950.368530 843.954834,943.528015 850.984436,936.976929 
z"/>
<path fill="#717D91" opacity="1.000000" stroke="none" 
	d="
M605.007568,126.145325 
	C605.958252,122.727654 607.782715,124.050980 609.565430,125.051918 
	C615.458984,128.361084 621.357605,131.661072 627.610474,135.018494 
	C642.721191,142.036545 657.475891,149.000702 672.598633,156.022339 
	C689.676575,161.420547 706.386353,166.761276 723.507446,172.135696 
	C735.346069,174.790802 746.739502,177.574005 758.212646,179.976562 
	C765.822388,181.570084 773.546326,182.618683 781.623169,184.159943 
	C782.027161,184.408676 782.052979,184.853500 782.052979,184.853500 
	C768.479492,182.856674 754.794189,181.423721 741.353699,178.756577 
	C702.085571,170.964127 664.502197,158.076889 628.836548,139.810516 
	C621.013367,135.803818 613.456055,131.277832 605.431641,126.907715 
	C605.087036,126.824440 605.038269,126.371178 605.007568,126.145325 
z"/>
<path fill="#8993A3" opacity="1.000000" stroke="none" 
	d="
M782.474731,184.898209 
	C782.052979,184.853500 782.027161,184.408676 782.030273,184.185501 
	C783.421814,183.964340 784.810303,183.966354 786.616516,183.939529 
	C809.818848,185.044556 832.603455,186.178421 855.701233,187.580933 
	C831.584412,188.323288 807.177063,188.226273 782.474731,184.898209 
z"/>
<path fill="#23385A" opacity="1.000000" stroke="none" 
	d="
M761.954773,1004.960693 
	C753.977905,1010.921021 745.688904,1016.687805 737.196533,1022.718628 
	C719.778015,1033.703247 702.568420,1044.432861 685.344177,1055.138794 
	C680.126282,1058.382080 674.867554,1061.559814 669.327393,1064.941895 
	C647.487305,1077.522339 625.969482,1089.967285 604.354858,1102.241699 
	C602.988892,1103.017456 600.513062,1103.139038 599.158020,1102.422241 
	C590.558472,1097.873413 582.129089,1093.002930 573.323242,1088.103516 
	C561.045349,1080.827148 549.061279,1073.729614 537.134888,1066.536499 
	C490.499176,1038.409424 444.204407,1009.700439 401.188538,976.205017 
	C385.392731,963.905151 370.285278,950.359741 356.668579,935.705505 
	C334.790924,912.160950 313.945007,887.606018 293.577545,862.729309 
	C281.342285,847.785278 272.234161,830.670715 266.191376,812.140137 
	C265.630432,810.419922 265.363800,808.603821 264.935303,806.432373 
	C269.614716,808.029358 274.385468,809.886108 279.003143,812.066956 
	C282.753387,813.838135 286.271912,816.092957 289.975586,817.970764 
	C317.744507,832.050232 345.558350,846.041260 373.310394,860.153809 
	C404.615723,876.073242 435.869232,892.094543 467.148865,908.064575 
	C499.170166,924.413269 531.202332,940.740601 563.215698,957.104797 
	C573.438782,962.330566 583.612122,967.653564 593.821350,972.906738 
	C595.270630,973.652405 596.794373,974.253479 599.061462,975.270386 
	C603.196350,958.265015 601.600952,941.131592 603.895813,923.428894 
	C612.638855,927.870728 620.450073,931.826050 628.245056,935.813171 
	C629.424805,936.416565 630.491455,937.241882 631.673340,937.840088 
	C660.790161,952.576050 689.927673,967.270996 719.033630,982.028259 
	C731.947632,988.575867 744.812256,995.221375 757.666016,1001.886536 
	C759.103088,1002.631714 760.322388,1003.796753 761.954773,1004.960693 
z"/>
<path fill="#5E697D" opacity="1.000000" stroke="none" 
	d="
M851.133423,936.677429 
	C843.954834,943.528015 837.169556,950.368530 829.835754,956.559387 
	C819.985535,964.874390 809.711792,972.687683 799.321045,980.872192 
	C797.279785,982.026306 795.537292,983.024658 793.450317,984.041870 
	C798.638855,979.425354 804.245911,974.874939 809.688843,970.135925 
	C819.773254,961.355774 829.761719,952.465393 839.954956,943.325684 
	C857.449951,923.835999 874.777588,904.639282 892.117004,885.453064 
	C893.115723,884.347961 894.209229,883.328369 895.802368,882.220093 
	C896.576599,882.457336 896.807129,882.743530 897.037720,883.029724 
	C895.437805,885.458862 893.837891,887.888000 892.090698,890.617615 
	C885.687073,897.734009 879.403381,904.525146 873.181946,911.372864 
	C867.285217,917.863464 861.432129,924.394104 855.608459,930.950378 
	C854.074219,932.677612 852.719543,934.564392 851.133423,936.677429 
z"/>
<path fill="#5E697D" opacity="1.000000" stroke="none" 
	d="
M792.727722,984.101990 
	C792.303040,984.747498 791.553162,985.379150 790.468872,986.027954 
	C790.890503,985.392761 791.646484,984.740479 792.727722,984.101990 
z"/>
<path fill="#6C788A" opacity="1.000000" stroke="none" 
	d="
M897.332886,882.880981 
	C896.807129,882.743530 896.576599,882.457336 896.089111,882.056152 
	C896.613281,881.252686 897.394470,880.564209 898.514160,879.869507 
	C898.444458,880.819580 898.036316,881.775940 897.332886,882.880981 
z"/>
<path fill="#151C2B" opacity="1.000000" stroke="none" 
	d="
M525.260437,498.482971 
	C540.632202,503.755432 550.133911,514.106567 556.174866,528.669922 
	C561.692871,541.972351 562.627197,555.730652 561.850586,569.595764 
	C560.888977,586.763550 556.598633,603.130310 543.326477,615.376526 
	C519.648499,637.224304 477.122192,633.359375 461.591461,600.316101 
	C449.777679,575.180969 449.858307,549.604065 461.668213,524.326111 
	C472.296692,501.576843 497.386475,491.147278 521.469910,497.790375 
	C522.575073,498.095245 523.750671,498.144806 525.260437,498.482971 
z"/>
<path fill="#151D2B" opacity="1.000000" stroke="none" 
	d="
M748.506531,544.555054 
	C740.426270,550.385925 731.397400,552.131592 722.119629,552.850769 
	C713.274048,553.536377 704.404236,553.909912 695.253296,554.437500 
	C695.253296,535.178772 695.253296,516.809021 695.253296,498.332703 
	C709.424316,495.930511 723.325439,496.771545 737.000977,500.173248 
	C745.577454,502.306580 753.065979,506.766449 755.085449,516.128418 
	C757.271851,526.264160 757.331909,536.375061 748.506531,544.555054 
z"/>
</svg>