<svg version="1.1" id="Layer_1" xmlns="http://www.w3.org/2000/svg" xmlns:xlink="http://www.w3.org/1999/xlink" x="0px" y="0px"
	 width="100%" viewBox="0 0 204 192" enable-background="new 0 0 204 192" xml:space="preserve">
<path fill="#E4F6FC" opacity="1.000000" stroke="none" 
	d="
M143.000000,193.000000 
	C116.312439,193.000000 89.624878,193.000000 62.276466,192.634827 
	C57.821663,191.855057 54.019978,191.500824 50.235004,191.016098 
	C25.336445,187.827560 11.522165,174.127457 9.196783,149.146378 
	C5.968347,114.464012 5.961169,79.706718 9.233666,45.026993 
	C10.372778,32.955444 14.106215,21.565544 23.972240,13.283689 
	C31.667023,6.824445 40.896633,4.344307 50.554337,2.912604 
	C54.379993,2.345470 58.185383,1.641609 62.000000,1.000000 
	C88.687561,1.000000 115.375122,1.000000 142.729095,1.367711 
	C147.523117,2.149065 151.662979,2.466605 155.776276,2.992095 
	C180.676086,6.173144 194.480606,19.880228 196.804260,44.861752 
	C200.030075,79.542259 200.038513,114.297188 196.766220,148.974731 
	C195.627182,161.045380 191.893723,172.434799 182.028091,180.715942 
	C174.333817,187.174454 165.107422,189.668381 155.447052,191.079956 
	C151.293213,191.686920 147.148727,192.358032 143.000000,193.000000 
M35.654350,141.341537 
	C38.407417,147.601364 43.084431,151.105728 50.907928,151.689835 
	C64.267464,151.674347 77.626991,151.658844 91.504097,152.122314 
	C100.575241,167.659149 121.264000,176.714767 139.551941,171.365097 
	C159.551270,165.514847 171.867584,148.971588 171.413818,126.957664 
	C171.013657,107.543312 156.074753,90.557014 137.111374,86.032471 
	C136.985275,76.385788 136.859177,66.739098 136.612595,56.444084 
	C125.407898,44.637272 114.203201,32.830460 102.407249,20.432608 
	C101.765984,20.291611 101.124908,20.028486 100.483414,20.027462 
	C84.188660,20.001463 67.893761,19.979673 51.599266,20.046648 
	C50.382397,20.051647 49.168282,20.726498 47.409447,21.535044 
	C41.948910,23.070787 37.684177,25.978437 35.351227,32.107254 
	C35.234478,32.740646 35.117725,33.374043 34.811859,34.465118 
	C34.811859,34.465118 34.874023,34.956417 34.583603,35.444477 
	C34.564808,35.988644 34.546013,36.532814 34.280582,37.972698 
	C34.262676,62.302586 34.218227,86.632500 34.241516,110.962349 
	C34.249481,119.283211 34.427334,127.603912 34.327595,136.456131 
	C34.513622,136.984940 34.699646,137.513748 34.828350,138.535248 
	C34.828350,138.535248 35.016865,138.994034 34.927940,139.621017 
	C35.145416,139.969528 35.362896,140.318039 35.654350,141.341537 
z"/>
<path fill="#08ACE8" opacity="1.000000" stroke="none" 
	d="
M143.468658,193.000000 
	C147.148727,192.358032 151.293213,191.686920 155.447052,191.079956 
	C165.107422,189.668381 174.333817,187.174454 182.028091,180.715942 
	C191.893723,172.434799 195.627182,161.045380 196.766220,148.974731 
	C200.038513,114.297188 200.030075,79.542259 196.804260,44.861752 
	C194.480606,19.880228 180.676086,6.173144 155.776276,2.992095 
	C151.662979,2.466605 147.523117,2.149065 143.197754,1.367711 
	C153.354233,1.000000 163.708450,1.000000 174.627472,1.335152 
	C191.284195,9.057947 199.261322,22.295214 202.152145,39.162212 
	C203.169235,45.096519 204.054535,51.053417 205.000000,57.000000 
	C205.000000,83.687561 205.000000,110.375122 204.639069,137.737564 
	C203.858246,142.191910 203.551941,145.988129 202.997147,149.747681 
	C201.337631,160.993134 198.943512,172.152527 190.735809,180.591476 
	C186.118729,185.338623 180.285400,188.902863 175.000000,193.000000 
	C164.645767,193.000000 154.291550,193.000000 143.468658,193.000000 
z"/>
<path fill="#08ACE8" opacity="1.000000" stroke="none" 
	d="
M61.531342,1.000000 
	C58.185383,1.641609 54.379993,2.345470 50.554337,2.912604 
	C40.896633,4.344307 31.667023,6.824445 23.972240,13.283689 
	C14.106215,21.565544 10.372778,32.955444 9.233666,45.026993 
	C5.961169,79.706718 5.968347,114.464012 9.196783,149.146378 
	C11.522165,174.127457 25.336445,187.827560 50.235004,191.016098 
	C54.019978,191.500824 57.821663,191.855057 61.807808,192.634827 
	C51.979103,193.000000 41.958210,193.000000 31.372477,192.664871 
	C14.713524,184.940872 6.750998,171.699203 3.839317,154.833252 
	C2.871279,149.225891 1.945240,143.611298 1.000000,138.000000 
	C1.000000,110.979103 1.000000,83.958214 1.360926,56.262428 
	C2.141737,51.808094 2.448052,48.011898 3.002820,44.252357 
	C4.662228,33.006912 7.056541,21.847624 15.264069,13.408663 
	C19.881123,8.661417 25.714554,5.097186 31.000000,1.000000 
	C41.020893,1.000000 51.041790,1.000000 61.531342,1.000000 
z"/>
<path fill="#FAFDFE" opacity="1.000000" stroke="none" 
	d="
M205.000000,56.531342 
	C204.054535,51.053417 203.169235,45.096519 202.152145,39.162212 
	C199.261322,22.295214 191.284195,9.057947 175.096130,1.335152 
	C184.948853,1.000000 194.897705,1.000000 205.000000,1.000000 
	C205.000000,19.353977 205.000000,37.708332 205.000000,56.531342 
z"/>
<path fill="#FAFDFE" opacity="1.000000" stroke="none" 
	d="
M30.531342,1.000000 
	C25.714554,5.097186 19.881123,8.661417 15.264069,13.408663 
	C7.056541,21.847624 4.662228,33.006912 3.002820,44.252357 
	C2.448052,48.011898 2.141737,51.808094 1.360926,55.793770 
	C1.000000,37.761547 1.000000,19.523096 1.000000,1.000000 
	C10.685706,1.000000 20.374195,1.000000 30.531342,1.000000 
z"/>
<path fill="#FAFDFE" opacity="1.000000" stroke="none" 
	d="
M175.468658,193.000000 
	C180.285400,188.902863 186.118729,185.338623 190.735809,180.591476 
	C198.943512,172.152527 201.337631,160.993134 202.997147,149.747681 
	C203.551941,145.988129 203.858246,142.191910 204.639069,138.206223 
	C205.000000,156.238449 205.000000,174.476913 205.000000,193.000000 
	C195.314301,193.000000 185.625809,193.000000 175.468658,193.000000 
z"/>
<path fill="#FAFDFE" opacity="1.000000" stroke="none" 
	d="
M1.000000,138.468658 
	C1.945240,143.611298 2.871279,149.225891 3.839317,154.833252 
	C6.750998,171.699203 14.713524,184.940872 30.903820,192.664871 
	C21.051754,193.000000 11.103507,193.000000 1.000000,193.000000 
	C1.000000,174.979370 1.000000,156.958344 1.000000,138.468658 
z"/>
<path fill="#0C3863" opacity="1.000000" stroke="none" 
	d="
M34.527565,135.924683 
	C34.427334,127.603912 34.249481,119.283211 34.241516,110.962349 
	C34.218227,86.632500 34.262676,62.302586 34.642548,37.443737 
	C34.961018,36.261990 34.917519,35.609203 34.874023,34.956417 
	C34.874023,34.956417 34.811859,34.465118 35.166504,34.020248 
	C35.620220,32.929676 35.719288,32.283978 35.818356,31.638277 
	C37.684177,25.978437 41.948910,23.070787 48.031349,21.345524 
	C49.115868,21.156630 49.578484,21.157255 50.354431,21.425377 
	C67.183990,21.783863 83.700188,21.883055 100.216537,21.932146 
	C100.802162,21.933886 101.389252,21.439226 102.226700,21.106466 
	C102.651329,21.032555 102.824913,21.028099 102.998505,21.023643 
	C114.203201,32.830460 125.407898,44.637272 136.441528,57.101505 
	C136.177856,66.473984 136.046539,75.189026 136.044617,83.904099 
	C136.044403,84.924103 136.757843,85.944267 137.140442,86.964355 
	C156.074753,90.557014 171.013657,107.543312 171.413818,126.957664 
	C171.867584,148.971588 159.551270,165.514847 139.551941,171.365097 
	C121.264000,176.714767 100.575241,167.659149 91.100677,151.526276 
	C89.980957,150.621994 89.265945,150.048477 88.548164,150.044998 
	C76.660820,149.987137 64.772896,149.969315 52.885963,150.058075 
	C51.927952,150.065231 50.976223,150.914963 50.021576,151.373154 
	C43.084431,151.105728 38.407417,147.601364 35.677242,140.687500 
	C35.472378,139.686981 35.244621,139.340515 35.016865,138.994034 
	C35.016865,138.994034 34.828350,138.535248 35.059464,138.143738 
	C35.036236,137.143036 34.781902,136.533859 34.527565,135.924683 
M59.233810,113.432571 
	C59.233810,113.432571 59.669567,113.479340 59.669567,113.479340 
	C59.669567,113.479340 59.966095,113.107956 60.895668,112.945610 
	C67.894958,112.929291 74.894241,112.906670 81.893539,112.898483 
	C88.595840,112.890648 91.303558,110.419479 92.469635,103.010483 
	C82.441803,103.010483 72.450356,103.032921 62.459133,102.994270 
	C60.047951,102.984947 56.807976,103.614807 56.911865,99.837997 
	C57.014305,96.113937 60.289581,96.886276 62.656654,96.866760 
	C70.655693,96.800812 78.662544,96.634369 86.653160,96.902000 
	C94.063316,97.150169 101.215378,97.212646 107.132576,91.612869 
	C108.509155,90.310135 110.596016,89.532181 112.492722,89.046791 
	C118.395218,87.536270 124.363327,86.282112 130.715622,84.835220 
	C130.715622,77.457207 130.715622,69.565674 130.715622,61.089092 
	C125.138664,61.089092 119.853271,61.125389 114.568542,61.081402 
	C104.143219,60.994629 98.991035,55.810543 98.950180,45.392937 
	C98.926933,39.463390 98.945984,33.533672 98.945984,27.190845 
	C83.897278,27.190845 69.595413,27.189995 55.293556,27.191137 
	C45.314724,27.191935 43.168552,28.711369 39.708855,38.176315 
	C39.818813,38.456734 39.928768,38.737148 40.190929,39.942837 
	C40.140190,71.289345 40.089451,102.635857 39.708015,134.174423 
	C39.818211,134.455475 39.928406,134.736542 40.351330,135.652954 
	C42.713421,143.499954 45.711926,145.724655 54.046780,145.741943 
	C62.845890,145.760208 71.645065,145.746216 80.444214,145.746307 
	C82.825722,145.746323 85.207230,145.746307 86.688972,145.746307 
	C86.021278,136.496368 85.410820,128.039322 84.764725,119.088692 
	C77.324425,119.088692 69.213745,119.206795 61.112450,118.983864 
	C59.587139,118.941902 58.099236,117.540527 56.594074,116.766441 
	C57.412994,115.564560 58.231915,114.362686 59.233810,113.432571 
M163.229034,116.440552 
	C156.545776,100.570091 142.472824,91.207321 126.708466,92.143333 
	C110.460800,93.108055 96.545441,104.143448 92.557121,119.676506 
	C88.952866,133.713837 92.071495,146.511627 102.772362,156.190933 
	C112.539177,165.025345 123.745720,170.172256 137.957458,165.750778 
	C158.877365,159.242264 169.722244,139.465012 163.229034,116.440552 
M115.018845,42.481792 
	C111.871986,39.448029 108.725128,36.414268 105.082710,32.902760 
	C105.082710,38.312317 104.850487,43.078369 105.150284,47.810726 
	C105.430702,52.237305 107.739861,55.045368 112.625053,54.981293 
	C116.869026,54.925629 121.114311,54.969711 126.647491,54.969711 
	C122.386017,50.383247 118.950050,46.685257 115.018845,42.481792 
z"/>
<path fill="#072451" opacity="1.000000" stroke="none" 
	d="
M50.464752,151.531494 
	C50.976223,150.914963 51.927952,150.065231 52.885963,150.058075 
	C64.772896,149.969315 76.660820,149.987137 88.548164,150.044998 
	C89.265945,150.048477 89.980957,150.621994 90.841896,151.286804 
	C77.626991,151.658844 64.267464,151.674347 50.464752,151.531494 
z"/>
<path fill="#FFFFFF" opacity="1.000000" stroke="none" 
	d="
M50.041100,21.157879 
	C49.578484,21.157255 49.115868,21.156630 48.303070,21.122980 
	C49.168282,20.726498 50.382397,20.051647 51.599266,20.046648 
	C67.893761,19.979673 84.188660,20.001463 100.483414,20.027462 
	C101.124908,20.028486 101.765984,20.291611 102.702881,20.728127 
	C102.824913,21.028099 102.651329,21.032555 101.764664,21.025707 
	C84.048096,21.062229 67.044594,21.110054 50.041100,21.157879 
z"/>
<path fill="#000148" opacity="1.000000" stroke="none" 
	d="
M137.125916,86.498413 
	C136.757843,85.944267 136.044403,84.924103 136.044617,83.904099 
	C136.046539,75.189026 136.177856,66.473984 136.501770,57.425671 
	C136.859177,66.739098 136.985275,76.385788 137.125916,86.498413 
z"/>
<path fill="#304D74" opacity="1.000000" stroke="none" 
	d="
M34.427582,136.190399 
	C34.781902,136.533859 35.036236,137.143036 35.088120,137.897385 
	C34.699646,137.513748 34.513622,136.984940 34.427582,136.190399 
z"/>
<path fill="#304D74" opacity="1.000000" stroke="none" 
	d="
M34.728813,35.200447 
	C34.917519,35.609203 34.961018,36.261990 34.765865,36.995880 
	C34.546013,36.532814 34.564808,35.988644 34.728813,35.200447 
z"/>
<path fill="#304D74" opacity="1.000000" stroke="none" 
	d="
M35.584793,31.872765 
	C35.719288,32.283978 35.620220,32.929676 35.261063,33.791405 
	C35.117725,33.374043 35.234478,32.740646 35.584793,31.872765 
z"/>
<path fill="#304D74" opacity="1.000000" stroke="none" 
	d="
M34.972404,139.307526 
	C35.244621,139.340515 35.472378,139.686981 35.640251,140.350006 
	C35.362896,140.318039 35.145416,139.969528 34.972404,139.307526 
z"/>
<path fill="#00A9E6" opacity="1.000000" stroke="none" 
	d="
M40.038712,133.982361 
	C40.089451,102.635857 40.140190,71.289345 40.153122,39.221352 
	C40.089733,38.327351 40.064159,38.154835 40.038586,37.982323 
	C43.168552,28.711369 45.314724,27.191935 55.293556,27.191137 
	C69.595413,27.189995 83.897278,27.190845 98.945984,27.190845 
	C98.945984,33.533672 98.926933,39.463390 98.950180,45.392937 
	C98.991035,55.810543 104.143219,60.994629 114.568542,61.081402 
	C119.853271,61.125389 125.138664,61.089092 130.715622,61.089092 
	C130.715622,69.565674 130.715622,77.457207 130.715622,84.835220 
	C124.363327,86.282112 118.395218,87.536270 112.492722,89.046791 
	C110.596016,89.532181 108.509155,90.310135 107.132576,91.612869 
	C101.215378,97.212646 94.063316,97.150169 86.653160,96.902000 
	C78.662544,96.634369 70.655693,96.800812 62.656654,96.866760 
	C60.289581,96.886276 57.014305,96.113937 56.911865,99.837997 
	C56.807976,103.614807 60.047951,102.984947 62.459133,102.994270 
	C72.450356,103.032921 82.441803,103.010483 92.469635,103.010483 
	C91.303558,110.419479 88.595840,112.890648 81.893539,112.898483 
	C74.894241,112.906670 67.894958,112.929291 60.199966,113.003647 
	C59.504269,113.061691 59.050831,113.160805 59.050831,113.160805 
	C58.231915,114.362686 57.412994,115.564560 56.594074,116.766441 
	C58.099236,117.540527 59.587139,118.941902 61.112450,118.983864 
	C69.213745,119.206795 77.324425,119.088692 84.764725,119.088692 
	C85.410820,128.039322 86.021278,136.496368 86.688972,145.746307 
	C85.207230,145.746307 82.825722,145.746323 80.444214,145.746307 
	C71.645065,145.746216 62.845890,145.760208 54.046780,145.741943 
	C45.711926,145.724655 42.713421,143.499954 40.233318,135.076431 
	C40.089779,134.327393 40.064247,134.154877 40.038712,133.982361 
M65.643402,87.155212 
	C73.941040,87.150032 82.243011,87.277641 90.531998,87.007278 
	C91.893196,86.962883 93.197327,85.168839 94.527832,84.183426 
	C93.462273,83.129761 92.416458,81.184753 91.328087,81.160637 
	C80.714394,80.925468 70.092163,80.934158 59.477119,81.130402 
	C58.465454,81.149101 56.729939,82.888962 56.700989,83.870216 
	C56.671108,84.882721 58.137691,86.481339 59.270546,86.857880 
	C60.927628,87.408684 62.870857,87.098610 65.643402,87.155212 
z"/>
<path fill="#F0D141" opacity="1.000000" stroke="none" 
	d="
M163.354721,116.818466 
	C169.722244,139.465012 158.877365,159.242264 137.957458,165.750778 
	C123.745720,170.172256 112.539177,165.025345 102.772362,156.190933 
	C92.071495,146.511627 88.952866,133.713837 92.557121,119.676506 
	C96.545441,104.143448 110.460800,93.108055 126.708466,92.143333 
	C142.472824,91.207321 156.545776,100.570091 163.354721,116.818466 
M97.830688,127.660851 
	C96.216583,144.916611 110.750023,160.945435 129.481186,160.289932 
	C145.665207,159.723557 158.728165,146.672867 158.984955,130.450577 
	C159.253662,113.476624 146.686142,99.698242 130.217926,98.911850 
	C113.290474,98.103531 99.218628,110.211555 97.830688,127.660851 
z"/>
<path fill="#01E7CB" opacity="1.000000" stroke="none" 
	d="
M115.266464,42.734528 
	C118.950050,46.685257 122.386017,50.383247 126.647491,54.969711 
	C121.114311,54.969711 116.869026,54.925629 112.625053,54.981293 
	C107.739861,55.045368 105.430702,52.237305 105.150284,47.810726 
	C104.850487,43.078369 105.082710,38.312317 105.082710,32.902760 
	C108.725128,36.414268 111.871986,39.448029 115.266464,42.734528 
z"/>
<path fill="#000042" opacity="1.000000" stroke="none" 
	d="
M50.354431,21.425377 
	C67.044594,21.110054 84.048096,21.062229 101.513626,21.095161 
	C101.389252,21.439226 100.802162,21.933886 100.216537,21.932146 
	C83.700188,21.883055 67.183990,21.783863 50.354431,21.425377 
z"/>
<path fill="#072451" opacity="1.000000" stroke="none" 
	d="
M59.142319,113.296692 
	C59.050831,113.160805 59.504269,113.061691 59.735184,113.084824 
	C59.966095,113.107956 59.669567,113.479340 59.669567,113.479340 
	C59.669567,113.479340 59.233810,113.432571 59.142319,113.296692 
z"/>
<path fill="#072451" opacity="1.000000" stroke="none" 
	d="
M39.873363,134.078400 
	C40.064247,134.154877 40.089779,134.327393 40.076954,134.758759 
	C39.928406,134.736542 39.818211,134.455475 39.873363,134.078400 
z"/>
<path fill="#072451" opacity="1.000000" stroke="none" 
	d="
M39.873718,38.079319 
	C40.064159,38.154835 40.089733,38.327351 40.077019,38.758713 
	C39.928768,38.737148 39.818813,38.456734 39.873718,38.079319 
z"/>
<path fill="#073662" opacity="1.000000" stroke="none" 
	d="
M65.167770,87.155327 
	C62.870857,87.098610 60.927628,87.408684 59.270546,86.857880 
	C58.137691,86.481339 56.671108,84.882721 56.700989,83.870216 
	C56.729939,82.888962 58.465454,81.149101 59.477119,81.130402 
	C70.092163,80.934158 80.714394,80.925468 91.328087,81.160637 
	C92.416458,81.184753 93.462273,83.129761 94.527832,84.183426 
	C93.197327,85.168839 91.893196,86.962883 90.531998,87.007278 
	C82.243011,87.277641 73.941040,87.150032 65.167770,87.155327 
z"/>
<path fill="#0D3761" opacity="1.000000" stroke="none" 
	d="
M97.850128,127.203316 
	C99.218628,110.211555 113.290474,98.103531 130.217926,98.911850 
	C146.686142,99.698242 159.253662,113.476624 158.984955,130.450577 
	C158.728165,146.672867 145.665207,159.723557 129.481186,160.289932 
	C110.750023,160.945435 96.216583,144.916611 97.850128,127.203316 
M110.959015,118.835403 
	C110.181389,117.806046 109.403755,116.776688 107.802109,114.656555 
	C106.093689,119.632645 104.833176,123.304108 103.476852,127.254662 
	C107.791443,128.254364 109.839798,127.690453 110.032753,123.976479 
	C110.108536,122.517715 110.587036,121.079880 110.959015,118.835403 
M131.312149,124.619949 
	C131.990509,129.874161 135.960068,128.038101 138.501892,127.391052 
	C142.139206,126.465164 141.146530,123.700134 139.823257,120.810081 
	C136.841843,121.886223 134.128326,122.865669 131.312149,124.619949 
M152.606308,125.426651 
	C151.514816,122.214218 150.423340,119.001793 149.109314,115.134377 
	C143.577393,119.131866 147.916183,122.941231 147.063766,126.911476 
	C149.223328,126.592957 150.780426,126.363297 152.606308,125.426651 
M119.260574,127.679237 
	C120.355522,127.386238 121.507645,127.221123 122.529366,126.764328 
	C123.554878,126.305824 124.450424,125.556587 125.402924,124.934761 
	C124.565475,124.164352 123.851761,123.064812 122.864250,122.693573 
	C120.938240,121.969505 118.859032,121.652985 116.868195,121.173714 
	C115.600471,126.106743 115.600471,126.106743 119.260574,127.679237 
M109.276749,142.725952 
	C109.683022,139.609863 110.089287,136.493790 110.513367,133.241058 
	C107.633835,133.241058 105.932816,133.241058 102.879608,133.241058 
	C105.101707,137.074097 106.843620,140.078827 109.276749,142.725952 
M150.186813,132.864334 
	C149.082718,133.803833 147.306976,134.571228 147.013092,135.718307 
	C146.383606,138.175217 144.068665,141.364838 149.012833,143.313812 
	C150.023529,141.027771 151.232666,138.910919 151.847824,136.633636 
	C152.143387,135.539459 151.317139,134.142227 150.186813,132.864334 
M134.264511,109.327934 
	C133.454803,108.744568 132.645081,108.161201 131.733032,107.504105 
	C131.733032,110.839722 131.733032,113.675751 131.733032,117.037819 
	C134.074829,116.376350 135.868790,115.869614 138.208344,115.208771 
	C136.809418,113.063942 135.762833,111.459343 134.264511,109.327934 
M137.070175,145.878159 
	C135.580261,144.627747 134.090363,143.377319 131.660751,141.338242 
	C131.660751,145.975113 131.660751,148.632599 131.660751,152.585541 
	C133.860413,149.966797 135.279053,148.277863 137.070175,145.878159 
M132.288605,133.017014 
	C130.618469,135.047058 131.395798,136.162277 133.677597,136.683136 
	C135.710770,137.147247 137.750946,137.580826 140.287720,138.137558 
	C140.516037,136.294510 140.699890,134.810333 140.935638,132.907318 
	C138.001251,132.907318 135.560364,132.907318 132.288605,133.017014 
M125.123230,133.416138 
	C122.117065,133.214157 119.110901,133.012177 115.651474,132.779739 
	C116.133331,135.040375 116.452301,136.536758 117.024544,139.221420 
	C120.257210,137.246597 122.767334,135.713181 125.123230,133.416138 
M123.146805,116.472504 
	C125.728767,115.072075 125.939766,113.847656 124.352249,107.173546 
	C122.309822,109.935112 120.643311,112.188400 118.657814,114.872993 
	C120.341156,115.494308 121.373283,115.875259 123.146805,116.472504 
M122.146973,149.305756 
	C122.941513,150.019928 123.736046,150.734116 125.041443,151.907486 
	C125.041443,148.454895 125.041443,145.769730 125.041443,142.581375 
	C122.902283,143.120499 121.110710,143.572021 118.847023,144.142532 
	C119.999687,146.016785 120.843575,147.388977 122.146973,149.305756 
z"/>
<path fill="#DBC145" opacity="1.000000" stroke="none" 
	d="
M110.920578,119.233963 
	C110.587036,121.079880 110.108536,122.517715 110.032753,123.976479 
	C109.839798,127.690453 107.791443,128.254364 103.476852,127.254662 
	C104.833176,123.304108 106.093689,119.632645 107.802109,114.656555 
	C109.403755,116.776688 110.181389,117.806046 110.920578,119.233963 
z"/>
<path fill="#D0B947" opacity="1.000000" stroke="none" 
	d="
M131.363480,124.232536 
	C134.128326,122.865669 136.841843,121.886223 139.823257,120.810081 
	C141.146530,123.700134 142.139206,126.465164 138.501892,127.391052 
	C135.960068,128.038101 131.990509,129.874161 131.363480,124.232536 
z"/>
<path fill="#E3C843" opacity="1.000000" stroke="none" 
	d="
M152.471909,125.780151 
	C150.780426,126.363297 149.223328,126.592957 147.063766,126.911476 
	C147.916183,122.941231 143.577393,119.131866 149.109314,115.134377 
	C150.423340,119.001793 151.514816,122.214218 152.471909,125.780151 
z"/>
<path fill="#DCC345" opacity="1.000000" stroke="none" 
	d="
M118.856598,127.724274 
	C115.600471,126.106743 115.600471,126.106743 116.868195,121.173714 
	C118.859032,121.652985 120.938240,121.969505 122.864250,122.693573 
	C123.851761,123.064812 124.565475,124.164352 125.402924,124.934761 
	C124.450424,125.556587 123.554878,126.305824 122.529366,126.764328 
	C121.507645,127.221123 120.355522,127.386238 118.856598,127.724274 
z"/>
<path fill="#E7CB42" opacity="1.000000" stroke="none" 
	d="
M108.931145,142.904755 
	C106.843620,140.078827 105.101707,137.074097 102.879608,133.241058 
	C105.932816,133.241058 107.633835,133.241058 110.513367,133.241058 
	C110.089287,136.493790 109.683022,139.609863 108.931145,142.904755 
z"/>
<path fill="#ECCF41" opacity="1.000000" stroke="none" 
	d="
M150.592865,132.873291 
	C151.317139,134.142227 152.143387,135.539459 151.847824,136.633636 
	C151.232666,138.910919 150.023529,141.027771 149.012833,143.313812 
	C144.068665,141.364838 146.383606,138.175217 147.013092,135.718307 
	C147.306976,134.571228 149.082718,133.803833 150.592865,132.873291 
z"/>
<path fill="#D7BE46" opacity="1.000000" stroke="none" 
	d="
M134.490387,109.591339 
	C135.762833,111.459343 136.809418,113.063942 138.208344,115.208771 
	C135.868790,115.869614 134.074829,116.376350 131.733032,117.037819 
	C131.733032,113.675751 131.733032,110.839722 131.733032,107.504105 
	C132.645081,108.161201 133.454803,108.744568 134.490387,109.591339 
z"/>
<path fill="#DDC345" opacity="1.000000" stroke="none" 
	d="
M136.883942,146.233551 
	C135.279053,148.277863 133.860413,149.966797 131.660751,152.585541 
	C131.660751,148.632599 131.660751,145.975113 131.660751,141.338242 
	C134.090363,143.377319 135.580261,144.627747 136.883942,146.233551 
z"/>
<path fill="#E3C943" opacity="1.000000" stroke="none" 
	d="
M132.704041,132.962158 
	C135.560364,132.907318 138.001251,132.907318 140.935638,132.907318 
	C140.699890,134.810333 140.516037,136.294510 140.287720,138.137558 
	C137.750946,137.580826 135.710770,137.147247 133.677597,136.683136 
	C131.395798,136.162277 130.618469,135.047058 132.704041,132.962158 
z"/>
<path fill="#EBD041" opacity="1.000000" stroke="none" 
	d="
M125.200348,133.797943 
	C122.767334,135.713181 120.257210,137.246597 117.024544,139.221420 
	C116.452301,136.536758 116.133331,135.040375 115.651474,132.779739 
	C119.110901,133.012177 122.117065,133.214157 125.200348,133.797943 
z"/>
<path fill="#E5C943" opacity="1.000000" stroke="none" 
	d="
M122.776108,116.364357 
	C121.373283,115.875259 120.341156,115.494308 118.657814,114.872993 
	C120.643311,112.188400 122.309822,109.935112 124.352249,107.173546 
	C125.939766,113.847656 125.728767,115.072075 122.776108,116.364357 
z"/>
<path fill="#ECD041" opacity="1.000000" stroke="none" 
	d="
M121.917221,149.033463 
	C120.843575,147.388977 119.999687,146.016785 118.847023,144.142532 
	C121.110710,143.572021 122.902283,143.120499 125.041443,142.581375 
	C125.041443,145.769730 125.041443,148.454895 125.041443,151.907486 
	C123.736046,150.734116 122.941513,150.019928 121.917221,149.033463 
z"/>
</svg>