<svg version="1.1" id="Layer_1" xmlns="http://www.w3.org/2000/svg" xmlns:xlink="http://www.w3.org/1999/xlink" x="0px" y="0px"
	 width="100%" viewBox="0 0 512 512" enable-background="new 0 0 512 512" xml:space="preserve">
<path fill="#000000" opacity="1.000000" stroke="none" 
	d="
M1.000000,174.000000 
	C1.000000,116.000000 1.000000,58.500000 1.000000,1.000000 
	C171.666672,1.000000 342.333344,1.000000 513.000000,1.000000 
	C513.000000,171.666672 513.000000,342.333344 513.000000,513.000000 
	C342.333344,513.000000 171.666672,513.000000 1.000000,513.000000 
	C1.000000,400.166656 1.000000,287.333344 1.000000,174.000000 
M480.934387,104.151703 
	C486.512817,104.151703 492.091248,104.151703 497.665894,104.151703 
	C497.665894,74.442017 497.665894,45.456795 497.665894,16.202011 
	C491.558319,16.202011 485.780731,16.202011 479.075592,16.056196 
	C433.524445,16.056196 387.973328,16.056196 342.377258,16.056196 
	C342.377258,45.765701 342.377258,74.797905 342.377258,104.184006 
	C344.541504,104.184006 346.352142,104.184013 348.162781,104.184013 
	C380.964355,104.184013 413.765961,104.201790 446.567535,104.174179 
	C457.717529,104.164795 468.867493,104.040970 480.934387,104.151703 
M153.090683,409.850555 
	C107.525261,409.850555 61.959843,409.850555 16.347885,409.850555 
	C16.347885,439.518463 16.347885,468.553192 16.347885,497.967194 
	C26.159721,497.967194 35.624859,497.978607 45.089958,497.965210 
	C81.392967,497.913788 117.695953,497.854370 154.923279,497.946655 
	C160.496765,497.946655 166.070251,497.946655 171.651596,497.946655 
	C171.651596,468.217163 171.651596,439.244019 171.651596,410.029510 
	C165.561676,410.029510 159.788437,410.029510 153.090683,409.850555 
M154.932724,104.152931 
	C160.504700,104.152931 166.076675,104.152931 171.640289,104.152931 
	C171.640289,74.429337 171.640289,45.461346 171.640289,16.202549 
	C165.542969,16.202549 159.770782,16.202549 153.071686,16.056387 
	C107.523674,16.056387 61.975658,16.056387 16.311281,16.056387 
	C16.311281,45.704983 16.311281,74.734138 16.311281,104.183876 
	C21.083549,104.183876 25.559780,104.391586 30.008900,104.132942 
	C35.990547,103.785210 40.542751,105.310722 41.692097,111.782768 
	C48.347660,111.782768 54.617905,111.782768 61.091640,111.782768 
	C62.249393,105.469543 66.461914,104.103455 72.130997,104.118805 
	C99.425362,104.192703 126.720322,104.041328 154.932724,104.152931 
M479.092834,409.850433 
	C433.544983,409.850433 387.997162,409.850433 342.369202,409.850433 
	C342.369202,439.505585 342.369202,468.528961 342.369202,497.967377 
	C344.509949,497.967377 346.308746,497.967346 348.107544,497.967346 
	C373.578125,497.967438 399.048737,497.963837 424.519318,497.969971 
	C431.800049,497.971741 433.167328,498.928650 435.844330,505.864624 
	C442.104645,505.864624 448.405945,505.864624 454.658630,505.864624 
	C457.082397,498.902222 458.348938,498.008545 465.531799,497.962830 
	C470.355835,497.932129 475.179596,497.854919 480.926971,497.946472 
	C486.508667,497.946472 492.090363,497.946472 497.676483,497.946472 
	C497.676483,468.228241 497.676483,439.236633 497.676483,410.029938 
	C491.576691,410.029938 485.797119,410.029938 479.092834,409.850433 
M326.907593,312.039886 
	C331.685150,312.039886 336.462708,312.039886 341.712555,312.039886 
	C341.712555,301.468811 341.942017,291.356171 341.629883,281.260284 
	C341.430054,274.795868 342.471893,269.641449 350.021057,268.672272 
	C350.021057,263.116089 350.123749,257.960815 349.947418,252.815063 
	C349.904388,251.559082 349.150208,249.412231 348.376587,249.241119 
	C342.097870,247.852310 341.661346,243.337631 341.677185,238.164627 
	C341.755615,212.550995 341.712646,186.936981 341.712494,161.323105 
	C341.712494,159.541077 341.712494,157.759048 341.712494,155.744354 
	C336.105743,155.744354 331.014130,155.744354 325.031921,155.478622 
	C274.151367,155.478622 223.270844,155.478622 172.422943,155.478622 
	C172.422943,223.529510 172.422943,290.773773 172.422943,358.573151 
	C179.108429,358.573151 185.596924,358.206665 192.010025,358.742676 
	C194.811172,358.976776 199.266922,360.518250 199.829926,362.403931 
	C201.412796,367.705322 204.899033,367.068115 208.658096,367.015228 
	C212.648590,366.959076 216.640472,367.002594 220.555679,367.002594 
	C223.435181,359.182037 224.297531,358.575836 232.661499,358.571289 
	C251.652359,358.560913 270.643219,358.568024 289.634064,358.568024 
	C291.372192,358.568024 293.110352,358.568024 295.056885,358.568024 
	C295.056885,347.307678 294.976654,336.820129 295.081451,326.334412 
	C295.170319,317.437836 300.566467,312.178436 309.503693,312.043945 
	C314.996735,311.961304 320.490509,311.929718 326.907593,312.039886 
M310.124023,346.474640 
	C316.909302,340.403564 323.694611,334.332458 331.454132,327.389679 
	C323.163940,327.389679 316.675812,327.389679 310.033112,327.389679 
	C310.033112,333.730469 310.033112,339.691101 310.124023,346.474640 
z"/>
<path fill="#B1E4FA" opacity="1.000000" stroke="none" 
	d="
M325.983978,311.875244 
	C320.490509,311.929718 314.996735,311.961304 309.503693,312.043945 
	C300.566467,312.178436 295.170319,317.437836 295.081451,326.334412 
	C294.976654,336.820129 295.056885,347.307678 295.056885,358.568024 
	C293.110352,358.568024 291.372192,358.568024 289.634064,358.568024 
	C270.643219,358.568024 251.652359,358.560913 232.661499,358.571289 
	C224.297531,358.575836 223.435181,359.182037 220.555679,367.002594 
	C216.640472,367.002594 212.648590,366.959076 208.658096,367.015228 
	C204.899033,367.068115 201.412796,367.705322 199.829926,362.403931 
	C199.266922,360.518250 194.811172,358.976776 192.010025,358.742676 
	C185.596924,358.206665 179.108429,358.573151 172.422943,358.573151 
	C172.422943,290.773773 172.422943,223.529510 172.422943,155.478622 
	C223.270844,155.478622 274.151367,155.478622 325.505798,156.031067 
	C325.981110,208.347427 325.982544,260.111328 325.983978,311.875244 
M247.499969,244.881104 
	C265.461029,244.880692 283.422272,244.924301 301.383057,244.853195 
	C306.811188,244.831711 310.037292,241.851471 310.022736,237.290329 
	C310.008728,232.896866 306.890564,229.913620 301.806854,229.903931 
	C271.871918,229.846832 241.935898,229.778061 212.003357,230.053009 
	C209.531708,230.075699 206.187759,232.030441 204.804642,234.118088 
	C201.619965,238.924942 205.674164,244.744492 212.075226,244.833847 
	C223.548111,244.994003 235.024826,244.880341 247.499969,244.881104 
M245.509109,284.132538 
	C256.803406,284.128082 268.098480,284.200165 279.391632,284.084290 
	C284.426880,284.032654 287.462524,280.963257 287.377258,276.501221 
	C287.297546,272.330353 284.260834,269.360321 279.555939,269.160187 
	C275.742584,268.997986 271.917053,269.118561 268.096924,269.118561 
	C256.968658,269.118591 245.839706,269.048096 234.712463,269.155884 
	C229.763443,269.203796 226.454712,272.343445 226.404831,276.589935 
	C226.354340,280.890442 229.591263,283.940338 234.549576,284.100037 
	C237.868103,284.206940 241.192596,284.128204 245.509109,284.132538 
z"/>
<path fill="#6398F7" opacity="1.000000" stroke="none" 
	d="
M480.003479,497.798492 
	C475.179596,497.854919 470.355835,497.932129 465.531799,497.962830 
	C458.348938,498.008545 457.082397,498.902222 454.658630,505.864624 
	C448.405945,505.864624 442.104645,505.864624 435.844330,505.864624 
	C433.167328,498.928650 431.800049,497.971741 424.519318,497.969971 
	C399.048737,497.963837 373.578125,497.967438 348.107544,497.967346 
	C346.308746,497.967346 344.509949,497.967377 342.369202,497.967377 
	C342.369202,468.528961 342.369202,439.505585 342.369202,409.850433 
	C387.997162,409.850433 433.544983,409.850433 479.555786,410.406830 
	C479.948456,423.807617 479.878174,436.652008 479.530212,449.286621 
	C472.484619,442.211731 465.750519,435.312866 458.936279,428.494049 
	C454.750397,424.305328 450.525299,423.885620 447.166229,427.140411 
	C443.711884,430.487518 444.125000,434.914246 448.564484,439.247894 
	C453.178101,443.751434 457.967468,448.074890 462.982880,452.760101 
	C457.426361,458.240082 452.653503,462.848022 447.996857,467.570526 
	C444.184418,471.436798 443.879181,475.794434 447.005707,478.984833 
	C450.140900,482.183990 454.620361,481.983124 458.429321,478.217926 
	C465.637299,471.092743 472.736603,463.857605 479.913666,457.156677 
	C479.965393,471.029663 479.984436,484.414062 480.003479,497.798492 
M385.515106,460.984650 
	C382.917755,458.487061 380.320374,455.989502 377.244049,453.031342 
	C382.768555,447.691864 387.889771,442.962799 392.743713,437.973663 
	C396.017853,434.608307 395.939850,430.246429 393.015198,427.276703 
	C390.008636,424.223785 385.739197,424.051270 382.339691,427.336761 
	C375.406952,434.036835 368.596893,440.870056 361.909607,447.815338 
	C358.751801,451.094940 358.789154,455.237091 361.954895,458.504608 
	C368.663879,465.429352 375.479248,472.256226 382.411560,478.957153 
	C385.697571,482.133453 390.221039,481.935333 393.101898,478.930817 
	C395.844666,476.070343 395.906952,471.859253 393.013123,468.589844 
	C390.813232,466.104340 388.357635,463.845123 385.515106,460.984650 
M435.638336,432.112213 
	C437.529602,425.894958 436.299652,422.045837 431.892273,420.389099 
	C427.359406,418.685242 423.586731,421.138855 421.313110,427.398499 
	C415.586609,443.164520 409.874268,458.935760 404.215149,474.726013 
	C402.289246,480.099823 403.939545,484.482117 408.238586,485.920197 
	C412.726227,487.421387 416.337036,485.286804 418.376923,479.682648 
	C424.057251,464.076965 429.661774,448.443726 435.638336,432.112213 
z"/>
<path fill="#6398F7" opacity="1.000000" stroke="none" 
	d="
M154.015076,103.969902 
	C126.720322,104.041328 99.425362,104.192703 72.130997,104.118805 
	C66.461914,104.103455 62.249393,105.469543 61.091640,111.782768 
	C54.617905,111.782768 48.347660,111.782768 41.692097,111.782768 
	C40.542751,105.310722 35.990547,103.785210 30.008900,104.132942 
	C25.559780,104.391586 21.083549,104.183876 16.311281,104.183876 
	C16.311281,74.734138 16.311281,45.704983 16.311281,16.056387 
	C61.975658,16.056387 107.523674,16.056387 153.537888,16.584995 
	C154.008865,27.176233 154.069778,37.239368 153.979675,47.301147 
	C153.956589,49.878147 153.456299,52.450867 152.915436,54.802124 
	C145.965851,47.872250 139.319412,41.121830 132.570084,34.475883 
	C128.534653,30.502262 124.493912,30.194504 121.147331,33.360180 
	C117.797974,36.528481 118.063713,41.134193 122.064133,45.148544 
	C126.746269,49.846973 131.582016,54.392319 136.821564,59.458977 
	C131.687286,64.398483 126.968010,68.824142 122.382156,73.383972 
	C118.103035,77.638817 117.710693,82.302841 121.162415,85.536697 
	C124.563637,88.723228 128.679535,88.232811 132.967865,84.003372 
	C139.710373,77.353424 146.399155,70.648979 153.360153,64.301270 
	C153.744766,77.746590 153.879913,90.858246 154.015076,103.969902 
M36.120312,53.710716 
	C32.482670,58.737286 32.610008,61.558910 36.907154,65.925415 
	C42.860832,71.975197 48.870392,77.970688 54.905312,83.939590 
	C59.350826,88.336472 63.730423,88.765358 67.079872,85.250671 
	C70.217628,81.958115 69.754654,77.542816 65.628654,73.423454 
	C61.042126,68.844299 56.323570,64.397385 51.179077,59.425720 
	C56.260067,54.521339 60.982143,50.084965 65.562592,45.506882 
	C69.869408,41.202286 70.251213,36.588924 66.780449,33.333443 
	C63.311661,30.079807 59.326176,30.544184 54.982967,34.839546 
	C48.829483,40.925232 42.735638,47.071224 36.120312,53.710716 
M81.789070,71.215134 
	C80.490936,74.809685 79.107536,78.376236 77.915787,82.005714 
	C76.347916,86.780647 78.049339,90.636993 82.230736,92.159447 
	C86.211060,93.608681 90.183624,91.873917 91.818314,87.414116 
	C98.051613,70.408333 104.290474,53.398518 110.014458,36.219345 
	C110.781342,33.917713 109.436897,29.842169 107.633499,27.977600 
	C103.889664,24.106771 98.081291,26.288570 95.947716,32.035805 
	C91.205467,44.810070 86.643669,57.651329 81.789070,71.215134 
z"/>
<path fill="#6398F7" opacity="1.000000" stroke="none" 
	d="
M153.998947,497.797913 
	C117.695953,497.854370 81.392967,497.913788 45.089958,497.965210 
	C35.624859,497.978607 26.159721,497.967194 16.347885,497.967194 
	C16.347885,468.553192 16.347885,439.518463 16.347885,409.850555 
	C61.959843,409.850555 107.525261,409.850555 153.553925,410.406738 
	C154.013123,423.973206 154.009094,436.983490 153.752563,449.777466 
	C146.523956,442.430023 139.598114,435.248810 132.551987,428.187653 
	C128.618622,424.245850 124.437851,423.959991 121.142570,427.118256 
	C117.769829,430.350800 118.037483,434.837372 122.149139,438.886292 
	C126.866272,443.531372 131.778625,447.978241 137.031097,452.910217 
	C131.331207,458.436035 126.364349,463.093597 121.585274,467.936523 
	C118.064301,471.504517 117.941666,475.954437 120.965469,479.013458 
	C123.988174,482.071472 128.530228,482.027710 132.054672,478.555084 
	C139.398636,471.319244 146.595520,463.934113 153.892578,457.101990 
	C153.954529,470.995117 153.976746,484.396515 153.998947,497.797913 
M68.073807,428.706238 
	C63.572262,423.835938 60.063881,423.613129 55.446636,428.139954 
	C49.157833,434.305603 42.937336,440.542419 36.763210,446.823090 
	C32.516029,451.143524 32.494816,455.063690 36.693676,459.334839 
	C42.867886,465.615326 49.100147,471.839844 55.373142,478.021759 
	C59.273392,481.865417 63.581448,482.242371 66.787125,479.194794 
	C70.150322,475.997375 69.864716,471.463165 65.876137,467.404022 
	C61.249241,462.695312 56.513664,458.093384 51.439804,453.062866 
	C56.513596,448.077728 61.207550,443.407928 65.969826,438.808899 
	C68.729927,436.143433 69.957710,433.153595 68.073807,428.706238 
M77.153557,479.277832 
	C77.873535,483.339569 80.012863,486.000977 84.360046,486.224030 
	C88.196465,486.420868 90.662804,484.383484 91.919685,480.910583 
	C98.023293,464.045471 104.134583,447.182617 110.109566,430.271820 
	C111.672150,425.849213 109.805077,421.932129 105.917747,420.424438 
	C102.049973,418.924316 97.783417,420.654694 96.205322,424.998169 
	C89.742126,442.787567 83.485916,460.652130 77.153557,479.277832 
z"/>
<path fill="#6398F7" opacity="1.000000" stroke="none" 
	d="
M480.017456,103.969437 
	C468.867493,104.040970 457.717529,104.164795 446.567535,104.174179 
	C413.765961,104.201790 380.964355,104.184013 348.162781,104.184013 
	C346.352142,104.184013 344.541504,104.184006 342.377258,104.184006 
	C342.377258,74.797905 342.377258,45.765701 342.377258,16.056196 
	C387.973328,16.056196 433.524445,16.056196 479.541260,16.584667 
	C479.998016,30.104101 479.989136,43.095066 479.713745,55.881268 
	C472.218201,48.311642 465.097015,40.836308 457.714325,33.628841 
	C454.065094,30.066236 449.020172,30.501528 446.372681,34.295071 
	C443.788147,37.998421 444.484009,41.552353 447.584808,44.648754 
	C452.476898,49.533878 457.432190,54.355694 462.521545,59.362530 
	C457.473480,64.372490 452.957581,68.800484 448.503693,73.289970 
	C444.206757,77.621269 443.730591,82.189087 447.142517,85.468552 
	C450.527252,88.721962 454.698975,88.282455 458.975189,84.068054 
	C465.736328,77.404579 472.431244,70.673866 479.393982,64.311050 
	C479.761658,77.756805 479.889557,90.863121 480.017456,103.969437 
M364.656067,51.219975 
	C357.766907,58.160892 357.775818,60.728996 364.720612,67.683632 
	C370.246124,73.216934 375.737091,78.785484 381.314453,84.266060 
	C385.468872,88.348404 389.873352,88.655197 393.119080,85.251205 
	C396.153839,82.068474 395.830536,77.619469 392.026764,73.786880 
	C387.344696,69.069344 382.505096,64.508125 377.376648,59.533043 
	C382.485626,54.507835 387.278046,49.913288 391.930786,45.181381 
	C395.918304,41.126030 396.190460,36.531448 392.846252,33.362545 
	C389.501465,30.193096 385.459778,30.522667 381.413910,34.487411 
	C375.947876,39.843784 370.578613,45.298878 364.656067,51.219975 
M433.861725,43.356735 
	C434.670410,40.999435 435.567566,38.668102 436.268616,36.279224 
	C437.574493,31.829203 435.747314,28.119505 431.655121,26.664373 
	C427.857483,25.313988 423.880280,26.913471 422.338806,31.100731 
	C415.966705,48.409992 409.728516,65.770027 403.633484,83.178741 
	C402.205658,87.256821 404.187897,90.420967 408.040100,92.021996 
	C412.028076,93.679443 415.206116,92.196037 417.316010,88.549416 
	C418.055359,87.271561 418.477356,85.802643 418.985718,84.399757 
	C423.854736,70.964081 428.711212,57.523838 433.861725,43.356735 
z"/>
<path fill="#8BCFEE" opacity="1.000000" stroke="none" 
	d="
M326.445801,311.957581 
	C325.982544,260.111328 325.981110,208.347427 325.951050,156.163940 
	C331.014130,155.744354 336.105743,155.744354 341.712494,155.744354 
	C341.712494,157.759048 341.712494,159.541077 341.712494,161.323105 
	C341.712646,186.936981 341.755615,212.550995 341.677185,238.164627 
	C341.661346,243.337631 342.097870,247.852310 348.376587,249.241119 
	C349.150208,249.412231 349.904388,251.559082 349.947418,252.815063 
	C350.123749,257.960815 350.021057,263.116089 350.021057,268.672272 
	C342.471893,269.641449 341.430054,274.795868 341.629883,281.260284 
	C341.942017,291.356171 341.712555,301.468811 341.712555,312.039886 
	C336.462708,312.039886 331.685150,312.039886 326.445801,311.957581 
z"/>
<path fill="#4A81F5" opacity="1.000000" stroke="none" 
	d="
M154.473892,104.061417 
	C153.879913,90.858246 153.744766,77.746590 153.459503,63.927307 
	C153.264679,60.488308 153.219971,57.756931 153.175247,55.025555 
	C153.456299,52.450867 153.956589,49.878147 153.979675,47.301147 
	C154.069778,37.239368 154.008865,27.176233 154.001343,16.658075 
	C159.770782,16.202549 165.542969,16.202549 171.640289,16.202549 
	C171.640289,45.461346 171.640289,74.429337 171.640289,104.152931 
	C166.076675,104.152931 160.504700,104.152931 154.473892,104.061417 
z"/>
<path fill="#4A81F5" opacity="1.000000" stroke="none" 
	d="
M154.005066,449.993805 
	C154.009094,436.983490 154.013123,423.973206 154.016174,410.496216 
	C159.788437,410.029510 165.561676,410.029510 171.651596,410.029510 
	C171.651596,439.244019 171.651596,468.217163 171.651596,497.946655 
	C166.070251,497.946655 160.496765,497.946655 154.461121,497.872284 
	C153.976746,484.396515 153.954529,470.995117 153.934616,456.691681 
	C153.959625,453.857697 153.982346,451.925751 154.005066,449.993805 
z"/>
<path fill="#4B81F5" opacity="1.000000" stroke="none" 
	d="
M479.807892,449.496399 
	C479.878174,436.652008 479.948456,423.807617 480.018127,410.496582 
	C485.797119,410.029938 491.576691,410.029938 497.676483,410.029938 
	C497.676483,439.236633 497.676483,468.228241 497.676483,497.946472 
	C492.090363,497.946472 486.508667,497.946472 480.465210,497.872498 
	C479.984436,484.414062 479.965393,471.029663 479.948883,456.754547 
	C479.903595,453.741364 479.855743,451.618896 479.807892,449.496399 
z"/>
<path fill="#4B81F5" opacity="1.000000" stroke="none" 
	d="
M479.980286,56.086029 
	C479.989136,43.095066 479.998016,30.104101 480.005005,16.657574 
	C485.780731,16.202011 491.558319,16.202011 497.665894,16.202011 
	C497.665894,45.456795 497.665894,74.442017 497.665894,104.151703 
	C492.091248,104.151703 486.512817,104.151703 480.475922,104.060570 
	C479.889557,90.863121 479.761658,77.756805 479.471069,63.986145 
	C479.532379,60.909878 479.756317,58.497955 479.980286,56.086029 
z"/>
<path fill="#78BEE1" opacity="1.000000" stroke="none" 
	d="
M310.078552,346.063171 
	C310.033112,339.691101 310.033112,333.730469 310.033112,327.389679 
	C316.675812,327.389679 323.163940,327.389679 331.454132,327.389679 
	C323.694611,334.332458 316.909302,340.403564 310.078552,346.063171 
z"/>
<path fill="#030404" opacity="1.000000" stroke="none" 
	d="
M246.999954,244.881104 
	C235.024826,244.880341 223.548111,244.994003 212.075226,244.833847 
	C205.674164,244.744492 201.619965,238.924942 204.804642,234.118088 
	C206.187759,232.030441 209.531708,230.075699 212.003357,230.053009 
	C241.935898,229.778061 271.871918,229.846832 301.806854,229.903931 
	C306.890564,229.913620 310.008728,232.896866 310.022736,237.290329 
	C310.037292,241.851471 306.811188,244.831711 301.383057,244.853195 
	C283.422272,244.924301 265.461029,244.880692 246.999954,244.881104 
z"/>
<path fill="#030404" opacity="1.000000" stroke="none" 
	d="
M245.011765,284.132538 
	C241.192596,284.128204 237.868103,284.206940 234.549576,284.100037 
	C229.591263,283.940338 226.354340,280.890442 226.404831,276.589935 
	C226.454712,272.343445 229.763443,269.203796 234.712463,269.155884 
	C245.839706,269.048096 256.968658,269.118591 268.096924,269.118561 
	C271.917053,269.118561 275.742584,268.997986 279.555939,269.160187 
	C284.260834,269.360321 287.297546,272.330353 287.377258,276.501221 
	C287.462524,280.963257 284.426880,284.032654 279.391632,284.084290 
	C268.098480,284.200165 256.803406,284.128082 245.011765,284.132538 
z"/>
<path fill="#010203" opacity="1.000000" stroke="none" 
	d="
M479.530212,449.286621 
	C479.855743,451.618896 479.903595,453.741364 479.916229,456.265991 
	C472.736603,463.857605 465.637299,471.092743 458.429321,478.217926 
	C454.620361,481.983124 450.140900,482.183990 447.005707,478.984833 
	C443.879181,475.794434 444.184418,471.436798 447.996857,467.570526 
	C452.653503,462.848022 457.426361,458.240082 462.982880,452.760101 
	C457.967468,448.074890 453.178101,443.751434 448.564484,439.247894 
	C444.125000,434.914246 443.711884,430.487518 447.166229,427.140411 
	C450.525299,423.885620 454.750397,424.305328 458.936279,428.494049 
	C465.750519,435.312866 472.484619,442.211731 479.530212,449.286621 
z"/>
<path fill="#010203" opacity="1.000000" stroke="none" 
	d="
M385.765442,461.234955 
	C388.357635,463.845123 390.813232,466.104340 393.013123,468.589844 
	C395.906952,471.859253 395.844666,476.070343 393.101898,478.930817 
	C390.221039,481.935333 385.697571,482.133453 382.411560,478.957153 
	C375.479248,472.256226 368.663879,465.429352 361.954895,458.504608 
	C358.789154,455.237091 358.751801,451.094940 361.909607,447.815338 
	C368.596893,440.870056 375.406952,434.036835 382.339691,427.336761 
	C385.739197,424.051270 390.008636,424.223785 393.015198,427.276703 
	C395.939850,430.246429 396.017853,434.608307 392.743713,437.973663 
	C387.889771,442.962799 382.768555,447.691864 377.244049,453.031342 
	C380.320374,455.989502 382.917755,458.487061 385.765442,461.234955 
z"/>
<path fill="#020305" opacity="1.000000" stroke="none" 
	d="
M435.467285,432.466797 
	C429.661774,448.443726 424.057251,464.076965 418.376923,479.682648 
	C416.337036,485.286804 412.726227,487.421387 408.238586,485.920197 
	C403.939545,484.482117 402.289246,480.099823 404.215149,474.726013 
	C409.874268,458.935760 415.586609,443.164520 421.313110,427.398499 
	C423.586731,421.138855 427.359406,418.685242 431.892273,420.389099 
	C436.299652,422.045837 437.529602,425.894958 435.467285,432.466797 
z"/>
<path fill="#030508" opacity="1.000000" stroke="none" 
	d="
M36.368309,53.451080 
	C42.735638,47.071224 48.829483,40.925232 54.982967,34.839546 
	C59.326176,30.544184 63.311661,30.079807 66.780449,33.333443 
	C70.251213,36.588924 69.869408,41.202286 65.562592,45.506882 
	C60.982143,50.084965 56.260067,54.521339 51.179077,59.425720 
	C56.323570,64.397385 61.042126,68.844299 65.628654,73.423454 
	C69.754654,77.542816 70.217628,81.958115 67.079872,85.250671 
	C63.730423,88.765358 59.350826,88.336472 54.905312,83.939590 
	C48.870392,77.970688 42.860832,71.975197 36.907154,65.925415 
	C32.610008,61.558910 32.482670,58.737286 36.368309,53.451080 
z"/>
<path fill="#020406" opacity="1.000000" stroke="none" 
	d="
M152.915436,54.802124 
	C153.219971,57.756931 153.264679,60.488308 153.210037,63.593651 
	C146.399155,70.648979 139.710373,77.353424 132.967865,84.003372 
	C128.679535,88.232811 124.563637,88.723228 121.162415,85.536697 
	C117.710693,82.302841 118.103035,77.638817 122.382156,73.383972 
	C126.968010,68.824142 131.687286,64.398483 136.821564,59.458977 
	C131.582016,54.392319 126.746269,49.846973 122.064133,45.148544 
	C118.063713,41.134193 117.797974,36.528481 121.147331,33.360180 
	C124.493912,30.194504 128.534653,30.502262 132.570084,34.475883 
	C139.319412,41.121830 145.965851,47.872250 152.915436,54.802124 
z"/>
<path fill="#020305" opacity="1.000000" stroke="none" 
	d="
M81.898689,70.840210 
	C86.643669,57.651329 91.205467,44.810070 95.947716,32.035805 
	C98.081291,26.288570 103.889664,24.106771 107.633499,27.977600 
	C109.436897,29.842169 110.781342,33.917713 110.014458,36.219345 
	C104.290474,53.398518 98.051613,70.408333 91.818314,87.414116 
	C90.183624,91.873917 86.211060,93.608681 82.230736,92.159447 
	C78.049339,90.636993 76.347916,86.780647 77.915787,82.005714 
	C79.107536,78.376236 80.490936,74.809685 81.898689,70.840210 
z"/>
<path fill="#010203" opacity="1.000000" stroke="none" 
	d="
M68.269951,429.053223 
	C69.957710,433.153595 68.729927,436.143433 65.969826,438.808899 
	C61.207550,443.407928 56.513596,448.077728 51.439804,453.062866 
	C56.513664,458.093384 61.249241,462.695312 65.876137,467.404022 
	C69.864716,471.463165 70.150322,475.997375 66.787125,479.194794 
	C63.581448,482.242371 59.273392,481.865417 55.373142,478.021759 
	C49.100147,471.839844 42.867886,465.615326 36.693676,459.334839 
	C32.494816,455.063690 32.516029,451.143524 36.763210,446.823090 
	C42.937336,440.542419 49.157833,434.305603 55.446636,428.139954 
	C60.063881,423.613129 63.572262,423.835938 68.269951,429.053223 
z"/>
<path fill="#010203" opacity="1.000000" stroke="none" 
	d="
M153.752563,449.777466 
	C153.982346,451.925751 153.959625,453.857697 153.894867,456.199951 
	C146.595520,463.934113 139.398636,471.319244 132.054672,478.555084 
	C128.530228,482.027710 123.988174,482.071472 120.965469,479.013458 
	C117.941666,475.954437 118.064301,471.504517 121.585274,467.936523 
	C126.364349,463.093597 131.331207,458.436035 137.031097,452.910217 
	C131.778625,447.978241 126.866272,443.531372 122.149139,438.886292 
	C118.037483,434.837372 117.769829,430.350800 121.142570,427.118256 
	C124.437851,423.959991 128.618622,424.245850 132.551987,428.187653 
	C139.598114,435.248810 146.523956,442.430023 153.752563,449.777466 
z"/>
<path fill="#020305" opacity="1.000000" stroke="none" 
	d="
M77.153534,478.883423 
	C83.485916,460.652130 89.742126,442.787567 96.205322,424.998169 
	C97.783417,420.654694 102.049973,418.924316 105.917747,420.424438 
	C109.805077,421.932129 111.672150,425.849213 110.109566,430.271820 
	C104.134583,447.182617 98.023293,464.045471 91.919685,480.910583 
	C90.662804,484.383484 88.196465,486.420868 84.360046,486.224030 
	C80.012863,486.000977 77.873535,483.339569 77.153534,478.883423 
z"/>
<path fill="#030508" opacity="1.000000" stroke="none" 
	d="
M479.713745,55.881268 
	C479.756317,58.497955 479.532379,60.909878 479.231323,63.646706 
	C472.431244,70.673866 465.736328,77.404579 458.975189,84.068054 
	C454.698975,88.282455 450.527252,88.721962 447.142517,85.468552 
	C443.730591,82.189087 444.206757,77.621269 448.503693,73.289970 
	C452.957581,68.800484 457.473480,64.372490 462.521545,59.362530 
	C457.432190,54.355694 452.476898,49.533878 447.584808,44.648754 
	C444.484009,41.552353 443.788147,37.998421 446.372681,34.295071 
	C449.020172,30.501528 454.065094,30.066236 457.714325,33.628841 
	C465.097015,40.836308 472.218201,48.311642 479.713745,55.881268 
z"/>
<path fill="#020406" opacity="1.000000" stroke="none" 
	d="
M364.911926,50.965794 
	C370.578613,45.298878 375.947876,39.843784 381.413910,34.487411 
	C385.459778,30.522667 389.501465,30.193096 392.846252,33.362545 
	C396.190460,36.531448 395.918304,41.126030 391.930786,45.181381 
	C387.278046,49.913288 382.485626,54.507835 377.376648,59.533043 
	C382.505096,64.508125 387.344696,69.069344 392.026764,73.786880 
	C395.830536,77.619469 396.153839,82.068474 393.119080,85.251205 
	C389.873352,88.655197 385.468872,88.348404 381.314453,84.266060 
	C375.737091,78.785484 370.246124,73.216934 364.720612,67.683632 
	C357.775818,60.728996 357.766907,58.160892 364.911926,50.965794 
z"/>
<path fill="#020305" opacity="1.000000" stroke="none" 
	d="
M433.716522,43.720825 
	C428.711212,57.523838 423.854736,70.964081 418.985718,84.399757 
	C418.477356,85.802643 418.055359,87.271561 417.316010,88.549416 
	C415.206116,92.196037 412.028076,93.679443 408.040100,92.021996 
	C404.187897,90.420967 402.205658,87.256821 403.633484,83.178741 
	C409.728516,65.770027 415.966705,48.409992 422.338806,31.100731 
	C423.880280,26.913471 427.857483,25.313988 431.655121,26.664373 
	C435.747314,28.119505 437.574493,31.829203 436.268616,36.279224 
	C435.567566,38.668102 434.670410,40.999435 433.716522,43.720825 
z"/>
</svg>