<svg version="1.1" id="Layer_1" xmlns="http://www.w3.org/2000/svg" xmlns:xlink="http://www.w3.org/1999/xlink" x="0px" y="0px"
	 width="100%" viewBox="0 0 512 512" enable-background="new 0 0 512 512" xml:space="preserve">
<path fill="#010101" opacity="1.000000" stroke="none" 
	d="
M513.000000,175.000000 
	C513.000000,287.972534 513.000000,400.445068 513.000000,512.958801 
	C342.402466,512.958801 171.804901,512.958801 1.103673,512.958801 
	C1.103673,342.444153 1.103673,171.888245 1.103673,1.166158 
	C171.666534,1.166158 342.333252,1.166158 513.000000,1.166158 
	C513.000000,58.861729 513.000000,116.680862 513.000000,175.000000 
M467.974762,18.156805 
	C466.476593,18.117203 464.978455,18.042974 463.480286,18.042917 
	C324.350159,18.037638 185.220016,18.037930 46.089893,18.039648 
	C44.923702,18.039663 43.755527,18.024523 42.591625,18.083052 
	C30.926760,18.669666 20.514063,26.551424 19.032902,38.110695 
	C17.741680,48.187641 18.763849,58.561016 18.763849,69.179108 
	C20.835516,69.179108 22.976768,69.179108 25.118021,69.179108 
	C174.245514,69.179108 323.373016,69.180069 472.500519,69.169632 
	C474.660828,69.169487 476.821167,69.027046 479.908478,69.111382 
	C485.147827,69.111382 490.387207,69.111382 495.813171,69.111382 
	C495.813171,59.168354 496.421936,49.993645 495.671295,40.931530 
	C494.529236,27.143942 482.481079,17.401995 467.974762,18.156805 
M468.831055,495.910675 
	C485.408112,495.836426 495.957092,485.052673 495.959229,468.031708 
	C495.975128,342.719635 495.969452,217.407547 495.958374,92.095474 
	C495.958221,90.322990 495.801239,88.550529 495.703217,86.477547 
	C489.801178,86.477547 484.348419,86.477547 477.985718,86.313530 
	C477.486542,86.294785 476.987335,86.259613 476.488159,86.259590 
	C325.326355,86.253418 174.164551,86.248878 23.002750,86.257629 
	C21.541925,86.257713 20.081114,86.435013 18.036465,86.567368 
	C18.036465,88.929672 18.036463,91.041603 18.036463,93.153526 
	C18.036503,217.482880 18.036215,341.812225 18.039440,466.141571 
	C18.039494,468.141144 17.972763,470.149048 18.123396,472.138947 
	C19.138159,485.544342 30.806597,496.375824 43.754753,495.426727 
	C43.754753,493.179504 43.754738,490.878479 43.754749,488.577423 
	C43.755272,375.247711 43.741917,261.918030 43.768093,148.588318 
	C43.773293,126.071823 57.817848,111.977501 80.165520,111.971153 
	C147.163376,111.952126 214.161240,111.936668 281.159088,111.981758 
	C302.105530,111.995865 316.564636,126.495888 316.816101,147.510651 
	C316.842987,149.757401 316.819733,152.004745 316.819733,154.249496 
	C318.287109,154.473862 318.928406,154.613358 319.576721,154.664948 
	C334.288452,155.836182 342.203583,162.798187 345.261414,177.307755 
	C346.222473,181.867950 347.250305,186.420242 348.000732,191.016479 
	C348.501038,194.080826 350.147339,195.461090 352.815735,197.133453 
	C361.993286,202.885345 369.721436,201.157883 377.166840,194.188065 
	C378.845825,192.616348 380.973206,191.498871 382.966705,190.292099 
	C393.245239,184.069992 405.605286,185.304581 414.315308,193.620667 
	C420.099548,199.143311 425.720764,204.843491 431.268829,210.604874 
	C437.212524,216.777054 440.030609,224.431030 437.841522,232.618896 
	C436.256805,238.546219 433.199005,244.438461 429.481842,249.350204 
	C424.311401,256.182251 422.168671,262.281860 427.008545,270.298920 
	C429.190887,273.913971 430.575714,276.840759 435.384827,277.234375 
	C440.326874,277.638824 445.207764,278.989655 450.071075,280.117554 
	C461.845306,282.848206 469.831024,292.372894 470.158112,304.361176 
	C470.385315,312.687469 470.384583,321.030701 470.143768,329.356476 
	C469.815002,340.721191 462.265320,350.043945 451.270874,353.003540 
	C448.221741,353.824341 445.115387,354.713226 441.991821,354.923126 
	C433.274902,355.508789 426.771210,358.588074 425.235413,368.153351 
	C425.133270,368.789520 424.814117,369.441132 424.438324,369.974579 
	C422.608643,372.572174 423.313049,374.747437 425.058258,377.169220 
	C428.367218,381.760895 431.451965,386.520294 434.495178,391.295868 
	C438.569153,397.688995 439.500031,404.663544 437.566437,411.927124 
	C435.007233,421.540894 412.930939,443.357361 403.384644,446.073059 
	C393.163605,448.980682 384.462036,445.440948 377.018372,439.040405 
	C369.353424,432.449615 361.977844,430.658691 352.995422,436.268646 
	C350.405945,437.885925 348.503815,439.060364 348.009521,442.249634 
	C347.194366,447.508789 346.062988,452.722717 344.949432,457.931030 
	C342.413696,469.790833 333.388092,477.735260 321.269623,478.862274 
	C319.978180,478.982422 318.683228,479.064514 317.201782,479.178772 
	C317.201782,484.809509 317.201782,490.180756 317.201782,495.963531 
	C319.539642,495.963531 321.512054,495.963501 323.484467,495.963501 
	C357.483368,495.963501 391.482300,495.981873 425.481201,495.954712 
	C439.643677,495.943390 453.806061,495.835083 468.831055,495.910675 
M237.865189,440.403442 
	C230.182739,445.745056 222.035904,448.855072 212.516510,445.984131 
	C203.583206,443.289948 181.687042,421.401306 178.995422,412.416718 
	C176.025650,402.503723 178.895081,393.745941 185.310287,386.412018 
	C192.598511,378.079987 194.478073,369.763550 187.946976,360.389008 
	C186.951385,358.959930 185.384003,357.404510 183.802277,357.001373 
	C177.682846,355.441620 171.395737,354.541718 165.272308,352.995270 
	C154.149109,350.186096 146.394699,340.485199 146.098373,329.028015 
	C145.887314,320.867645 145.892609,312.693573 146.091827,304.532715 
	C146.380646,292.701782 154.659134,282.732208 166.093063,280.142883 
	C169.499878,279.371368 172.916519,278.365845 176.372040,278.144348 
	C183.677124,277.676147 188.992279,275.157593 190.327850,267.174164 
	C190.593506,265.586182 191.969513,264.178223 192.208527,262.593018 
	C192.472321,260.843567 192.600357,258.639709 191.769241,257.237152 
	C188.802994,252.231491 185.305878,247.544403 182.189880,242.622635 
	C175.337753,231.799683 176.613800,219.338242 185.540649,210.097031 
	C190.634247,204.824066 195.856873,199.673019 201.103470,194.551132 
	C210.882004,185.005005 223.307968,183.768417 234.831192,191.194901 
	C239.588364,194.260834 244.159775,197.624527 249.005280,200.537399 
	C250.271255,201.298431 252.409164,201.374924 253.865906,200.901688 
	C257.489746,199.724380 261.094818,198.306610 264.416382,196.461456 
	C265.989044,195.587814 267.534454,193.682144 267.987488,191.954361 
	C269.546661,186.008331 270.422424,179.885345 271.918365,173.920013 
	C274.660217,162.986145 283.607849,155.632767 294.789337,154.771896 
	C296.378326,154.649536 297.964569,154.491058 299.411713,154.361847 
	C301.614319,138.393524 294.659851,128.650696 277.125793,128.790375 
	C211.636414,129.312149 146.140366,128.996231 80.646828,129.001282 
	C67.167618,129.002319 60.822777,135.358795 60.821842,148.910995 
	C60.813976,262.733093 60.817211,376.555206 60.817097,490.377319 
	C60.817093,492.135193 60.817097,493.893066 60.817097,495.698334 
	C140.746964,495.698334 219.992004,495.698334 299.436584,495.698334 
	C299.436584,490.033112 299.436584,484.637909 299.436584,479.147888 
	C298.307861,479.053955 297.488464,478.967346 296.666809,478.920135 
	C283.158722,478.143982 273.965454,470.267059 271.196655,457.036469 
	C270.208435,452.314392 268.966461,447.607635 268.485077,442.828949 
	C268.081757,438.825104 265.612000,437.734589 262.603455,435.920776 
	C254.277115,430.900757 247.207794,431.991333 240.526245,438.587708 
	C239.944565,439.162018 239.156906,439.527710 237.865189,440.403442 
M197.689804,308.136871 
	C198.294510,318.404602 197.632294,328.936798 199.711761,338.896637 
	C212.190903,398.667145 267.478760,435.910034 327.973358,425.913849 
	C386.664154,416.215729 428.517517,356.679169 417.601257,298.417816 
	C406.320984,238.213577 353.983826,199.676483 293.291138,206.885345 
	C242.746445,212.888885 201.525009,256.192383 197.689804,308.136871 
M207.030106,238.552628 
	C215.888428,229.439728 224.746735,220.326828 233.739441,211.075668 
	C231.108063,209.317978 228.013702,207.102615 224.773987,205.125458 
	C220.930237,202.779648 217.061905,202.978607 213.781555,206.140152 
	C208.151840,211.565948 202.337814,216.875275 197.366364,222.868271 
	C195.652939,224.933762 195.094437,229.289124 196.009384,231.896164 
	C197.441086,235.975555 200.574814,239.457611 203.203842,243.527527 
	C204.594009,241.719971 205.595352,240.417999 207.030106,238.552628 
M388.912781,426.668671 
	C395.397003,430.883484 398.649750,431.174347 402.780701,427.242401 
	C408.322968,421.967163 414.011230,416.748444 418.799652,410.828369 
	C420.585663,408.620270 421.144836,404.141907 420.245758,401.347931 
	C418.986267,397.433777 415.840698,394.126495 413.806122,391.023529 
	C403.273254,401.553009 392.992859,411.830078 382.494415,422.325134 
	C383.978790,423.320709 386.149017,424.776245 388.912781,426.668671 
M318.509644,444.176208 
	C307.790100,444.176208 297.070587,444.176208 286.107971,444.176208 
	C286.779816,447.492493 287.386353,451.569000 288.465271,455.516418 
	C289.610168,459.705170 292.781036,461.772858 297.028748,461.838013 
	C304.511749,461.952789 312.049408,462.367950 319.456909,461.609375 
	C322.353668,461.312714 326.095947,458.779968 327.431610,456.213593 
	C329.387939,452.454681 329.526001,447.749451 330.551483,442.916931 
	C326.286224,443.375397 322.860352,443.743622 318.509644,444.176208 
M181.144501,332.089325 
	C181.144501,319.698212 181.144501,307.307098 181.144501,294.622131 
	C177.658142,295.316956 173.919464,296.010712 170.204788,296.815277 
	C165.433960,297.848511 163.167297,301.038361 163.103363,305.751770 
	C163.003937,313.080750 163.025360,320.412659 163.097519,327.742279 
	C163.137146,331.769409 164.855240,335.019165 168.836884,336.197754 
	C173.020630,337.436157 177.376312,338.093750 182.246613,339.130707 
	C181.825104,336.524078 181.538055,334.748962 181.144501,332.089325 
M234.101379,421.018158 
	C222.336639,412.404541 212.110062,402.244629 203.377853,389.988312 
	C200.857285,393.765045 198.436539,397.132782 196.296143,400.670166 
	C194.032608,404.411072 194.601959,408.044952 197.587326,411.180908 
	C200.686722,414.436584 203.914597,417.570190 207.092834,420.750610 
	C219.063538,432.729553 219.830246,432.786713 233.534332,422.673035 
	C233.922623,422.386505 234.183578,421.927460 234.101379,421.018158 
M401.338409,229.171356 
	C405.183960,233.705185 409.029510,238.239029 413.228455,243.189514 
	C415.728638,239.402710 418.309662,235.971786 420.358551,232.248062 
	C422.197571,228.905685 421.773529,225.374817 419.048889,222.561142 
	C413.607208,216.941650 408.311188,211.115219 402.336304,206.113312 
	C400.222656,204.343903 395.888824,203.515488 393.308441,204.404602 
	C389.148376,205.837982 385.601624,209.051361 381.931946,211.424805 
	C388.583160,217.482925 394.716156,223.069016 401.338409,229.171356 
M301.598358,171.740677 
	C289.798828,171.759079 285.727539,176.859711 286.630707,189.682648 
	C301.025146,189.682648 315.366211,189.682648 330.301117,189.682648 
	C329.656952,186.422791 328.950745,182.748322 328.201660,179.082596 
	C327.183807,174.101654 324.045197,171.746094 319.026733,171.748352 
	C313.541595,171.750824 308.056427,171.743607 301.598358,171.740677 
M450.575623,299.013245 
	C445.387604,297.344208 440.199554,295.675140 435.230682,294.076569 
	C435.230682,309.760895 435.230682,324.209198 435.230682,338.922394 
	C438.876648,338.175720 442.957947,337.565002 446.904785,336.469757 
	C451.038544,335.322540 453.171722,332.345001 453.170441,327.968597 
	C453.168243,320.499329 453.310059,313.025543 453.073578,305.563751 
	C453.009979,303.557251 451.798767,301.587097 450.575623,299.013245 
z"/>
<path fill="#663AB6" opacity="1.000000" stroke="none" 
	d="
M467.968506,495.770844 
	C453.806061,495.835083 439.643677,495.943390 425.481201,495.954712 
	C391.482300,495.981873 357.483368,495.963501 323.484467,495.963501 
	C321.512054,495.963501 319.539642,495.963531 317.201782,495.963531 
	C317.201782,490.180756 317.201782,484.809509 317.201782,479.178772 
	C318.683228,479.064514 319.978180,478.982422 321.269623,478.862274 
	C333.388092,477.735260 342.413696,469.790833 344.949432,457.931030 
	C346.062988,452.722717 347.194366,447.508789 348.009521,442.249634 
	C348.503815,439.060364 350.405945,437.885925 352.995422,436.268646 
	C361.977844,430.658691 369.353424,432.449615 377.018372,439.040405 
	C384.462036,445.440948 393.163605,448.980682 403.384644,446.073059 
	C412.930939,443.357361 435.007233,421.540894 437.566437,411.927124 
	C439.500031,404.663544 438.569153,397.688995 434.495178,391.295868 
	C431.451965,386.520294 428.367218,381.760895 425.058258,377.169220 
	C423.313049,374.747437 422.608643,372.572174 424.438324,369.974579 
	C424.814117,369.441132 425.133270,368.789520 425.235413,368.153351 
	C426.771210,358.588074 433.274902,355.508789 441.991821,354.923126 
	C445.115387,354.713226 448.221741,353.824341 451.270874,353.003540 
	C462.265320,350.043945 469.815002,340.721191 470.143768,329.356476 
	C470.384583,321.030701 470.385315,312.687469 470.158112,304.361176 
	C469.831024,292.372894 461.845306,282.848206 450.071075,280.117554 
	C445.207764,278.989655 440.326874,277.638824 435.384827,277.234375 
	C430.575714,276.840759 429.190887,273.913971 427.008545,270.298920 
	C422.168671,262.281860 424.311401,256.182251 429.481842,249.350204 
	C433.199005,244.438461 436.256805,238.546219 437.841522,232.618896 
	C440.030609,224.431030 437.212524,216.777054 431.268829,210.604874 
	C425.720764,204.843491 420.099548,199.143311 414.315308,193.620667 
	C405.605286,185.304581 393.245239,184.069992 382.966705,190.292099 
	C380.973206,191.498871 378.845825,192.616348 377.166840,194.188065 
	C369.721436,201.157883 361.993286,202.885345 352.815735,197.133453 
	C350.147339,195.461090 348.501038,194.080826 348.000732,191.016479 
	C347.250305,186.420242 346.222473,181.867950 345.261414,177.307755 
	C342.203583,162.798187 334.288452,155.836182 319.576721,154.664948 
	C318.928406,154.613358 318.287109,154.473862 316.819733,154.249496 
	C316.819733,152.004745 316.842987,149.757401 316.816101,147.510651 
	C316.564636,126.495888 302.105530,111.995865 281.159088,111.981758 
	C214.161240,111.936668 147.163376,111.952126 80.165520,111.971153 
	C57.817848,111.977501 43.773293,126.071823 43.768093,148.588318 
	C43.741917,261.918030 43.755272,375.247711 43.754749,488.577423 
	C43.754738,490.878479 43.754753,493.179504 43.754753,495.426727 
	C30.806597,496.375824 19.138159,485.544342 18.123396,472.138947 
	C17.972763,470.149048 18.039494,468.141144 18.039440,466.141571 
	C18.036215,341.812225 18.036503,217.482880 18.036463,93.153526 
	C18.036463,91.041603 18.036465,88.929672 18.036465,86.567368 
	C20.081114,86.435013 21.541925,86.257713 23.002750,86.257629 
	C174.164551,86.248878 325.326355,86.253418 476.488159,86.259590 
	C476.987335,86.259613 477.486542,86.294785 478.457336,86.832092 
	C478.953033,89.349762 478.998169,91.348877 478.998199,93.347984 
	C479.001556,217.650635 478.960236,341.953339 479.069855,466.255890 
	C479.079926,477.665802 475.969299,487.548553 467.968506,495.770844 
z"/>
<path fill="#02A8F2" opacity="1.000000" stroke="none" 
	d="
M238.165054,440.196869 
	C239.156906,439.527710 239.944565,439.162018 240.526245,438.587708 
	C247.207794,431.991333 254.277115,430.900757 262.603455,435.920776 
	C265.612000,437.734589 268.081757,438.825104 268.485077,442.828949 
	C268.966461,447.607635 270.208435,452.314392 271.196655,457.036469 
	C273.965454,470.267059 283.158722,478.143982 296.666809,478.920135 
	C297.488464,478.967346 298.307861,479.053955 299.436584,479.147888 
	C299.436584,484.637909 299.436584,490.033112 299.436584,495.698334 
	C219.992004,495.698334 140.746964,495.698334 60.817097,495.698334 
	C60.817097,493.893066 60.817093,492.135193 60.817097,490.377319 
	C60.817211,376.555206 60.813976,262.733093 60.821842,148.910995 
	C60.822777,135.358795 67.167618,129.002319 80.646828,129.001282 
	C146.140366,128.996231 211.636414,129.312149 277.125793,128.790375 
	C294.659851,128.650696 301.614319,138.393524 299.411713,154.361847 
	C297.964569,154.491058 296.378326,154.649536 294.789337,154.771896 
	C283.607849,155.632767 274.660217,162.986145 271.918365,173.920013 
	C270.422424,179.885345 269.546661,186.008331 267.987488,191.954361 
	C267.534454,193.682144 265.989044,195.587814 264.416382,196.461456 
	C261.094818,198.306610 257.489746,199.724380 253.865906,200.901688 
	C252.409164,201.374924 250.271255,201.298431 249.005280,200.537399 
	C244.159775,197.624527 239.588364,194.260834 234.831192,191.194901 
	C223.307968,183.768417 210.882004,185.005005 201.103470,194.551132 
	C195.856873,199.673019 190.634247,204.824066 185.540649,210.097031 
	C176.613800,219.338242 175.337753,231.799683 182.189880,242.622635 
	C185.305878,247.544403 188.802994,252.231491 191.769241,257.237152 
	C192.600357,258.639709 192.472321,260.843567 192.208527,262.593018 
	C191.969513,264.178223 190.593506,265.586182 190.327850,267.174164 
	C188.992279,275.157593 183.677124,277.676147 176.372040,278.144348 
	C172.916519,278.365845 169.499878,279.371368 166.093063,280.142883 
	C154.659134,282.732208 146.380646,292.701782 146.091827,304.532715 
	C145.892609,312.693573 145.887314,320.867645 146.098373,329.028015 
	C146.394699,340.485199 154.149109,350.186096 165.272308,352.995270 
	C171.395737,354.541718 177.682846,355.441620 183.802277,357.001373 
	C185.384003,357.404510 186.951385,358.959930 187.946976,360.389008 
	C194.478073,369.763550 192.598511,378.079987 185.310287,386.412018 
	C178.895081,393.745941 176.025650,402.503723 178.995422,412.416718 
	C181.687042,421.401306 203.583206,443.289948 212.516510,445.984131 
	C222.035904,448.855072 230.182739,445.745056 238.165054,440.196869 
M125.499893,171.761597 
	C145.794083,171.761383 166.088303,171.786469 186.382416,171.746872 
	C193.259003,171.733459 197.018494,168.711884 197.131409,163.335663 
	C197.250519,157.665543 193.584747,154.714264 186.274567,154.661163 
	C181.284454,154.624908 176.293869,154.653763 171.303497,154.653809 
	C146.684311,154.654053 122.065079,154.679825 97.446007,154.629074 
	C93.444031,154.620819 89.747459,155.034744 87.504272,158.905121 
	C84.012779,164.929321 88.323624,171.563568 96.055595,171.712860 
	C105.533806,171.895859 115.018181,171.759750 125.499893,171.761597 
M148.499985,478.923431 
	C161.641861,478.921906 174.784439,478.999512 187.925262,478.881592 
	C193.525589,478.831329 197.050034,475.416382 197.133759,470.485931 
	C197.216644,465.604187 193.932709,461.962952 188.731262,461.947021 
	C157.457382,461.851288 126.183052,461.875824 94.908958,461.918304 
	C90.274338,461.924591 87.444832,464.508728 86.532166,468.961761 
	C85.410973,474.432251 89.612946,478.860443 96.097031,478.892487 
	C113.230980,478.977173 130.365616,478.922577 148.499985,478.923431 
M115.500046,444.825348 
	C128.152039,444.823547 140.804779,444.901855 153.455704,444.784546 
	C159.377304,444.729645 163.045242,441.256256 163.042160,436.193329 
	C163.039017,431.030365 159.514404,427.796082 153.436371,427.774475 
	C134.292175,427.706390 115.147430,427.708313 96.003212,427.774078 
	C90.088181,427.794403 86.309921,431.235291 86.326698,436.219543 
	C86.343384,441.176849 90.159889,444.669067 96.022202,444.792267 
	C102.179031,444.921661 108.340630,444.823883 115.500046,444.825348 
M154.465027,403.123230 
	C153.988861,396.485931 151.597717,393.676697 145.455093,393.620575 
	C128.791473,393.468353 112.124886,393.483521 95.460915,393.614990 
	C89.898376,393.658875 86.267738,397.319000 86.324402,402.137268 
	C86.378723,406.756012 89.873878,410.516998 95.093651,410.574402 
	C111.923195,410.759430 128.756454,410.718628 145.587189,410.605591 
	C149.996613,410.575989 153.212219,408.446198 154.465027,403.123230 
M120.500076,188.812393 
	C112.348045,188.813690 104.195473,188.757828 96.044167,188.835388 
	C90.138184,188.891571 86.337822,192.263855 86.328499,197.234100 
	C86.319176,202.199493 90.149902,205.809723 95.960098,205.843323 
	C112.263596,205.937653 128.568298,205.933533 144.871872,205.846375 
	C150.742126,205.815002 154.527313,202.317062 154.571213,197.321381 
	C154.615143,192.322403 150.838013,188.898575 144.957733,188.836456 
	C137.139297,188.753845 129.319382,188.813721 120.500076,188.812393 
M123.500000,239.966187 
	C130.487366,239.965775 137.475159,240.012924 144.461975,239.950760 
	C150.689896,239.895370 154.593292,236.516617 154.568832,231.355789 
	C154.544449,226.212875 150.667175,222.946899 144.369629,222.933121 
	C128.398605,222.898148 112.427399,222.895660 96.456390,222.934982 
	C90.227043,222.950317 86.279419,226.337555 86.316017,231.450562 
	C86.352509,236.549423 90.322693,239.911194 96.547050,239.951157 
	C105.197708,240.006699 113.848984,239.965805 123.500000,239.966187 
M131.357849,359.320374 
	C119.880020,359.320984 108.401917,359.273499 96.924477,359.340637 
	C90.282806,359.379456 86.284424,362.734528 86.326973,367.993317 
	C86.369392,373.235901 90.305573,376.378265 97.073120,376.443634 
	C103.227325,376.503082 109.382553,376.464233 115.537323,376.456085 
	C122.856209,376.446411 130.180344,376.586151 137.492157,376.350128 
	C142.576462,376.186005 145.791855,372.890747 146.001038,368.326263 
	C146.217865,363.595093 142.955231,359.986847 137.793915,359.423523 
	C135.983688,359.225891 134.138824,359.345612 131.357849,359.320374 
M108.503601,274.034241 
	C117.980965,274.032410 127.459251,274.109894 136.935333,273.998383 
	C142.427811,273.933777 146.029251,270.405762 146.005829,265.491974 
	C145.983383,260.787994 142.484177,257.110809 137.357971,257.061523 
	C123.226463,256.925720 109.091896,256.923248 94.960449,257.062439 
	C89.916580,257.112091 86.294991,260.952667 86.320862,265.562103 
	C86.346893,270.200012 89.946831,273.793945 95.037079,273.986053 
	C99.188080,274.142700 103.349304,274.028381 108.503601,274.034241 
M126.033813,327.393158 
	C123.877983,326.655487 121.740257,325.351135 119.563087,325.281616 
	C111.587685,325.026917 103.596664,325.061859 95.616417,325.225983 
	C90.086899,325.339661 86.405563,328.874634 86.319527,333.661194 
	C86.230064,338.638550 90.024818,342.152924 95.874748,342.227966 
	C103.690758,342.328247 111.509323,342.211426 119.326187,342.270020 
	C123.112732,342.298401 126.203300,341.165222 127.999298,337.620544 
	C129.787842,334.090546 129.132599,330.868164 126.033813,327.393158 
M105.509766,308.130585 
	C110.489143,308.122070 115.472740,308.238037 120.446716,308.069794 
	C125.356903,307.903687 128.734222,304.586578 128.964142,300.068817 
	C129.188889,295.652527 125.938507,291.419556 121.267479,291.255188 
	C112.152344,290.934540 103.008759,290.935669 93.894753,291.277740 
	C89.414001,291.445862 86.277687,295.493011 86.326492,299.733612 
	C86.377983,304.206757 89.799759,307.783508 94.560516,308.055115 
	C97.869957,308.243927 101.197441,308.116669 105.509766,308.130585 
z"/>
<path fill="#9D9D9D" opacity="1.000000" stroke="none" 
	d="
M197.731064,307.682831 
	C201.525009,256.192383 242.746445,212.888885 293.291138,206.885345 
	C353.983826,199.676483 406.320984,238.213577 417.601257,298.417816 
	C428.517517,356.679169 386.664154,416.215729 327.973358,425.913849 
	C267.478760,435.910034 212.190903,398.667145 199.711761,338.896637 
	C197.632294,328.936798 198.294510,318.404602 197.731064,307.682831 
M343.382111,340.812836 
	C343.915497,339.968933 344.478363,339.142059 344.977905,338.278564 
	C354.764374,321.360840 352.126587,300.494415 338.466827,286.713043 
	C324.789703,272.914062 303.711273,270.079407 286.968262,279.787415 
	C270.120605,289.556091 261.815491,309.029419 267.098694,327.812164 
	C271.793243,344.502045 283.003998,355.173615 299.972137,358.432800 
	C317.532196,361.805695 332.089447,355.802460 343.382111,340.812836 
M340.652344,386.247223 
	C330.588959,391.101807 319.900452,393.112946 308.799988,393.596252 
	C302.752686,393.859589 299.520660,397.418304 299.837463,402.663696 
	C300.134521,407.582520 303.750244,410.782898 309.484314,410.543213 
	C314.791840,410.321350 320.124603,409.825806 325.362335,408.949310 
	C368.345520,401.756531 402.454163,361.256775 402.011322,318.089233 
	C401.950989,312.205811 398.707001,308.320526 393.737549,308.179810 
	C388.815765,308.040436 385.252319,311.910309 384.987854,317.664368 
	C383.556519,348.809113 368.994385,371.566193 340.652344,386.247223 
M275.364624,228.843307 
	C258.566376,235.135635 244.719772,245.452484 233.790604,259.631256 
	C221.187851,275.981201 214.879425,294.605621 214.317673,315.182587 
	C214.153931,321.181152 217.411942,324.936829 222.491608,325.127106 
	C227.558762,325.316956 230.833923,322.095642 231.336090,316.410065 
	C231.687531,312.431213 231.714996,308.396362 232.410629,304.479523 
	C239.040695,267.148285 268.843994,241.335968 306.719727,239.987793 
	C312.901520,239.767761 316.870697,236.299484 316.746338,231.226425 
	C316.620697,226.099289 312.575531,222.296585 306.382965,223.102798 
	C296.220551,224.425858 286.180023,226.684784 275.364624,228.843307 
z"/>
<path fill="#E81E63" opacity="1.000000" stroke="none" 
	d="
M478.981506,68.951012 
	C476.821167,69.027046 474.660828,69.169487 472.500519,69.169632 
	C323.373016,69.180069 174.245514,69.179108 25.118021,69.179108 
	C22.976768,69.179108 20.835516,69.179108 18.763849,69.179108 
	C18.763849,58.561016 17.741680,48.187641 19.032902,38.110695 
	C20.514063,26.551424 30.926760,18.669666 42.591625,18.083052 
	C43.755527,18.024523 44.923702,18.039663 46.089893,18.039648 
	C185.220016,18.037930 324.350159,18.037638 463.480286,18.042917 
	C464.978455,18.042974 466.476593,18.117203 468.510956,18.563244 
	C471.527771,23.025862 474.305084,26.939369 476.355194,31.202581 
	C477.284332,33.134670 476.770294,35.760784 476.625061,37.876526 
	C473.061676,35.702091 470.244476,33.728096 468.159393,29.962721 
	C465.137329,24.505358 456.945770,25.985228 453.947479,31.756832 
	C453.140411,33.310421 451.756775,34.896091 450.232910,35.678604 
	C446.764343,37.459743 444.177948,40.110188 445.084808,43.823284 
	C445.776276,46.654716 448.321198,49.082378 450.223907,51.549019 
	C451.216125,52.835320 453.093567,53.597195 453.714752,54.980518 
	C455.327820,58.572617 457.940247,60.656002 461.723419,60.673752 
	C465.746307,60.692631 468.492676,58.471558 469.986694,54.627716 
	C470.388885,53.592972 471.439178,52.767841 472.300140,51.962055 
	C474.407379,49.989902 476.577759,48.085243 478.760254,46.674152 
	C478.859039,54.446934 478.920258,61.698975 478.981506,68.951012 
M408.561493,35.069077 
	C406.396484,35.078224 404.221527,34.957466 402.068451,35.122360 
	C396.876678,35.519970 393.585907,39.001591 393.673645,43.827839 
	C393.761383,48.656174 397.104706,51.941086 402.426392,52.081642 
	C407.918457,52.226692 413.420746,52.232803 418.912323,52.078545 
	C424.058960,51.933979 427.631378,48.369812 427.664795,43.702332 
	C427.697876,39.081211 424.137634,35.435856 419.022278,35.126129 
	C415.869049,34.935215 412.695679,35.076786 408.561493,35.069077 
M84.368835,38.141144 
	C78.608620,33.568382 71.892395,34.834427 69.985146,40.924500 
	C68.769104,44.807503 69.742577,48.245155 73.106102,50.560421 
	C76.622948,52.981228 80.385147,52.849228 83.574722,49.926693 
	C87.126152,46.672596 87.244286,42.773632 84.368835,38.141144 
M47.345093,35.973934 
	C39.975723,33.906887 33.923794,38.752262 35.585213,45.454933 
	C36.561897,49.395191 39.102596,51.752686 43.236832,52.053165 
	C47.130405,52.336159 50.117729,50.624565 51.536129,47.054901 
	C53.270317,42.690483 52.051926,38.965435 47.345093,35.973934 
M109.233948,51.686108 
	C116.614128,52.597004 121.530777,48.563969 120.435989,42.414577 
	C119.668259,38.102283 116.913445,35.593357 112.646866,35.203049 
	C108.768044,34.848217 105.873871,36.841152 104.288177,40.343704 
	C102.493073,44.308807 104.080940,48.155457 109.233948,51.686108 
z"/>
<path fill="#45279D" opacity="1.000000" stroke="none" 
	d="
M468.399780,495.840759 
	C475.969299,487.548553 479.079926,477.665802 479.069855,466.255890 
	C478.960236,341.953339 479.001556,217.650635 478.998199,93.347984 
	C478.998169,91.348877 478.953033,89.349762 478.912292,86.914101 
	C484.348419,86.477547 489.801178,86.477547 495.703217,86.477547 
	C495.801239,88.550529 495.958221,90.322990 495.958374,92.095474 
	C495.969452,217.407547 495.975128,342.719635 495.959229,468.031708 
	C495.957092,485.052673 485.408112,495.836426 468.399780,495.840759 
z"/>
<path fill="#AC1456" opacity="1.000000" stroke="none" 
	d="
M476.910919,38.072060 
	C476.770294,35.760784 477.284332,33.134670 476.355194,31.202581 
	C474.305084,26.939369 471.527771,23.025862 468.966034,18.645618 
	C482.481079,17.401995 494.529236,27.143942 495.671295,40.931530 
	C496.421936,49.993645 495.813171,59.168354 495.813171,69.111382 
	C490.387207,69.111382 485.147827,69.111382 479.445007,69.031197 
	C478.920258,61.698975 478.859039,54.446934 478.743011,46.328239 
	C478.095764,42.998409 477.503357,40.535236 476.910919,38.072060 
z"/>
<path fill="#9A9A9A" opacity="1.000000" stroke="none" 
	d="
M206.813400,238.834320 
	C205.595352,240.417999 204.594009,241.719971 203.203842,243.527527 
	C200.574814,239.457611 197.441086,235.975555 196.009384,231.896164 
	C195.094437,229.289124 195.652939,224.933762 197.366364,222.868271 
	C202.337814,216.875275 208.151840,211.565948 213.781555,206.140152 
	C217.061905,202.978607 220.930237,202.779648 224.773987,205.125458 
	C228.013702,207.102615 231.108063,209.317978 233.739441,211.075668 
	C224.746735,220.326828 215.888428,229.439728 206.813400,238.834320 
z"/>
<path fill="#9A9A9A" opacity="1.000000" stroke="none" 
	d="
M388.615997,426.450256 
	C386.149017,424.776245 383.978790,423.320709 382.494415,422.325134 
	C392.992859,411.830078 403.273254,401.553009 413.806122,391.023529 
	C415.840698,394.126495 418.986267,397.433777 420.245758,401.347931 
	C421.144836,404.141907 420.585663,408.620270 418.799652,410.828369 
	C414.011230,416.748444 408.322968,421.967163 402.780701,427.242401 
	C398.649750,431.174347 395.397003,430.883484 388.615997,426.450256 
z"/>
<path fill="#9B9B9B" opacity="1.000000" stroke="none" 
	d="
M318.972046,444.144043 
	C322.860352,443.743622 326.286224,443.375397 330.551483,442.916931 
	C329.526001,447.749451 329.387939,452.454681 327.431610,456.213593 
	C326.095947,458.779968 322.353668,461.312714 319.456909,461.609375 
	C312.049408,462.367950 304.511749,461.952789 297.028748,461.838013 
	C292.781036,461.772858 289.610168,459.705170 288.465271,455.516418 
	C287.386353,451.569000 286.779816,447.492493 286.107971,444.176208 
	C297.070587,444.176208 307.790100,444.176208 318.972046,444.144043 
z"/>
<path fill="#9B9B9B" opacity="1.000000" stroke="none" 
	d="
M181.197754,332.531555 
	C181.538055,334.748962 181.825104,336.524078 182.246613,339.130707 
	C177.376312,338.093750 173.020630,337.436157 168.836884,336.197754 
	C164.855240,335.019165 163.137146,331.769409 163.097519,327.742279 
	C163.025360,320.412659 163.003937,313.080750 163.103363,305.751770 
	C163.167297,301.038361 165.433960,297.848511 170.204788,296.815277 
	C173.919464,296.010712 177.658142,295.316956 181.144501,294.622131 
	C181.144501,307.307098 181.144501,319.698212 181.197754,332.531555 
z"/>
<path fill="#9B9B9B" opacity="1.000000" stroke="none" 
	d="
M234.302643,421.283508 
	C234.183578,421.927460 233.922623,422.386505 233.534332,422.673035 
	C219.830246,432.786713 219.063538,432.729553 207.092834,420.750610 
	C203.914597,417.570190 200.686722,414.436584 197.587326,411.180908 
	C194.601959,408.044952 194.032608,404.411072 196.296143,400.670166 
	C198.436539,397.132782 200.857285,393.765045 203.377853,389.988312 
	C212.110062,402.244629 222.336639,412.404541 234.302643,421.283508 
z"/>
<path fill="#9C9C9C" opacity="1.000000" stroke="none" 
	d="
M401.093781,228.913239 
	C394.716156,223.069016 388.583160,217.482925 381.931946,211.424805 
	C385.601624,209.051361 389.148376,205.837982 393.308441,204.404602 
	C395.888824,203.515488 400.222656,204.343903 402.336304,206.113312 
	C408.311188,211.115219 413.607208,216.941650 419.048889,222.561142 
	C421.773529,225.374817 422.197571,228.905685 420.358551,232.248062 
	C418.309662,235.971786 415.728638,239.402710 413.228455,243.189514 
	C409.029510,238.239029 405.183960,233.705185 401.093781,228.913239 
z"/>
<path fill="#9B9B9B" opacity="1.000000" stroke="none" 
	d="
M302.084839,171.740631 
	C308.056427,171.743607 313.541595,171.750824 319.026733,171.748352 
	C324.045197,171.746094 327.183807,174.101654 328.201660,179.082596 
	C328.950745,182.748322 329.656952,186.422791 330.301117,189.682648 
	C315.366211,189.682648 301.025146,189.682648 286.630707,189.682648 
	C285.727539,176.859711 289.798828,171.759079 302.084839,171.740631 
z"/>
<path fill="#9C9C9C" opacity="1.000000" stroke="none" 
	d="
M450.844971,299.306763 
	C451.798767,301.587097 453.009979,303.557251 453.073578,305.563751 
	C453.310059,313.025543 453.168243,320.499329 453.170441,327.968597 
	C453.171722,332.345001 451.038544,335.322540 446.904785,336.469757 
	C442.957947,337.565002 438.876648,338.175720 435.230682,338.922394 
	C435.230682,324.209198 435.230682,309.760895 435.230682,294.076569 
	C440.199554,295.675140 445.387604,297.344208 450.844971,299.306763 
z"/>
<path fill="#000305" opacity="1.000000" stroke="none" 
	d="
M124.999893,171.761597 
	C115.018181,171.759750 105.533806,171.895859 96.055595,171.712860 
	C88.323624,171.563568 84.012779,164.929321 87.504272,158.905121 
	C89.747459,155.034744 93.444031,154.620819 97.446007,154.629074 
	C122.065079,154.679825 146.684311,154.654053 171.303497,154.653809 
	C176.293869,154.653763 181.284454,154.624908 186.274567,154.661163 
	C193.584747,154.714264 197.250519,157.665543 197.131409,163.335663 
	C197.018494,168.711884 193.259003,171.733459 186.382416,171.746872 
	C166.088303,171.786469 145.794083,171.761383 124.999893,171.761597 
z"/>
<path fill="#000203" opacity="1.000000" stroke="none" 
	d="
M147.999969,478.923431 
	C130.365616,478.922577 113.230980,478.977173 96.097031,478.892487 
	C89.612946,478.860443 85.410973,474.432251 86.532166,468.961761 
	C87.444832,464.508728 90.274338,461.924591 94.908958,461.918304 
	C126.183052,461.875824 157.457382,461.851288 188.731262,461.947021 
	C193.932709,461.962952 197.216644,465.604187 197.133759,470.485931 
	C197.050034,475.416382 193.525589,478.831329 187.925262,478.881592 
	C174.784439,478.999512 161.641861,478.921906 147.999969,478.923431 
z"/>
<path fill="#000304" opacity="1.000000" stroke="none" 
	d="
M115.000092,444.825348 
	C108.340630,444.823883 102.179031,444.921661 96.022202,444.792267 
	C90.159889,444.669067 86.343384,441.176849 86.326698,436.219543 
	C86.309921,431.235291 90.088181,427.794403 96.003212,427.774078 
	C115.147430,427.708313 134.292175,427.706390 153.436371,427.774475 
	C159.514404,427.796082 163.039017,431.030365 163.042160,436.193329 
	C163.045242,441.256256 159.377304,444.729645 153.455704,444.784546 
	C140.804779,444.901855 128.152039,444.823547 115.000092,444.825348 
z"/>
<path fill="#000406" opacity="1.000000" stroke="none" 
	d="
M154.379333,403.485901 
	C153.212219,408.446198 149.996613,410.575989 145.587189,410.605591 
	C128.756454,410.718628 111.923195,410.759430 95.093651,410.574402 
	C89.873878,410.516998 86.378723,406.756012 86.324402,402.137268 
	C86.267738,397.319000 89.898376,393.658875 95.460915,393.614990 
	C112.124886,393.483521 128.791473,393.468353 145.455093,393.620575 
	C151.597717,393.676697 153.988861,396.485931 154.379333,403.485901 
z"/>
<path fill="#000304" opacity="1.000000" stroke="none" 
	d="
M121.000084,188.812378 
	C129.319382,188.813721 137.139297,188.753845 144.957733,188.836456 
	C150.838013,188.898575 154.615143,192.322403 154.571213,197.321381 
	C154.527313,202.317062 150.742126,205.815002 144.871872,205.846375 
	C128.568298,205.933533 112.263596,205.937653 95.960098,205.843323 
	C90.149902,205.809723 86.319176,202.199493 86.328499,197.234100 
	C86.337822,192.263855 90.138184,188.891571 96.044167,188.835388 
	C104.195473,188.757828 112.348045,188.813690 121.000084,188.812378 
z"/>
<path fill="#000202" opacity="1.000000" stroke="none" 
	d="
M123.000000,239.966187 
	C113.848984,239.965805 105.197708,240.006699 96.547050,239.951157 
	C90.322693,239.911194 86.352509,236.549423 86.316017,231.450562 
	C86.279419,226.337555 90.227043,222.950317 96.456390,222.934982 
	C112.427399,222.895660 128.398605,222.898148 144.369629,222.933121 
	C150.667175,222.946899 154.544449,226.212875 154.568832,231.355789 
	C154.593292,236.516617 150.689896,239.895370 144.461975,239.950760 
	C137.475159,240.012924 130.487366,239.965775 123.000000,239.966187 
z"/>
<path fill="#000406" opacity="1.000000" stroke="none" 
	d="
M131.833817,359.320374 
	C134.138824,359.345612 135.983688,359.225891 137.793915,359.423523 
	C142.955231,359.986847 146.217865,363.595093 146.001038,368.326263 
	C145.791855,372.890747 142.576462,376.186005 137.492157,376.350128 
	C130.180344,376.586151 122.856209,376.446411 115.537323,376.456085 
	C109.382553,376.464233 103.227325,376.503082 97.073120,376.443634 
	C90.305573,376.378265 86.369392,373.235901 86.326973,367.993317 
	C86.284424,362.734528 90.282806,359.379456 96.924477,359.340637 
	C108.401917,359.273499 119.880020,359.320984 131.833817,359.320374 
z"/>
<path fill="#000101" opacity="1.000000" stroke="none" 
	d="
M108.004799,274.034241 
	C103.349304,274.028381 99.188080,274.142700 95.037079,273.986053 
	C89.946831,273.793945 86.346893,270.200012 86.320862,265.562103 
	C86.294991,260.952667 89.916580,257.112091 94.960449,257.062439 
	C109.091896,256.923248 123.226463,256.925720 137.357971,257.061523 
	C142.484177,257.110809 145.983383,260.787994 146.005829,265.491974 
	C146.029251,270.405762 142.427811,273.933777 136.935333,273.998383 
	C127.459251,274.109894 117.980965,274.032410 108.004799,274.034241 
z"/>
<path fill="#000405" opacity="1.000000" stroke="none" 
	d="
M126.313652,327.667999 
	C129.132599,330.868164 129.787842,334.090546 127.999298,337.620544 
	C126.203300,341.165222 123.112732,342.298401 119.326187,342.270020 
	C111.509323,342.211426 103.690758,342.328247 95.874748,342.227966 
	C90.024818,342.152924 86.230064,338.638550 86.319527,333.661194 
	C86.405563,328.874634 90.086899,325.339661 95.616417,325.225983 
	C103.596664,325.061859 111.587685,325.026917 119.563087,325.281616 
	C121.740257,325.351135 123.877983,326.655487 126.313652,327.667999 
z"/>
<path fill="#000304" opacity="1.000000" stroke="none" 
	d="
M105.013313,308.130585 
	C101.197441,308.116669 97.869957,308.243927 94.560516,308.055115 
	C89.799759,307.783508 86.377983,304.206757 86.326492,299.733612 
	C86.277687,295.493011 89.414001,291.445862 93.894753,291.277740 
	C103.008759,290.935669 112.152344,290.934540 121.267479,291.255188 
	C125.938507,291.419556 129.188889,295.652527 128.964142,300.068817 
	C128.734222,304.586578 125.356903,307.903687 120.446716,308.069794 
	C115.472740,308.238037 110.489143,308.122070 105.013313,308.130585 
z"/>
<path fill="#010203" opacity="1.000000" stroke="none" 
	d="
M343.174927,341.107727 
	C332.089447,355.802460 317.532196,361.805695 299.972137,358.432800 
	C283.003998,355.173615 271.793243,344.502045 267.098694,327.812164 
	C261.815491,309.029419 270.120605,289.556091 286.968262,279.787415 
	C303.711273,270.079407 324.789703,272.914062 338.466827,286.713043 
	C352.126587,300.494415 354.764374,321.360840 344.977905,338.278564 
	C344.478363,339.142059 343.915497,339.968933 343.174927,341.107727 
M290.956177,335.583374 
	C300.805878,343.623383 313.119568,344.471436 322.727173,337.771515 
	C332.280487,331.109436 336.148438,319.160858 332.282898,308.252441 
	C328.774780,298.352692 319.779694,291.640442 309.330139,291.124786 
	C299.060394,290.618011 289.269958,296.649353 284.935455,306.153015 
	C280.439148,316.011444 282.416260,326.414307 290.956177,335.583374 
z"/>
<path fill="#020202" opacity="1.000000" stroke="none" 
	d="
M341.001526,386.105927 
	C368.994385,371.566193 383.556519,348.809113 384.987854,317.664368 
	C385.252319,311.910309 388.815765,308.040436 393.737549,308.179810 
	C398.707001,308.320526 401.950989,312.205811 402.011322,318.089233 
	C402.454163,361.256775 368.345520,401.756531 325.362335,408.949310 
	C320.124603,409.825806 314.791840,410.321350 309.484314,410.543213 
	C303.750244,410.782898 300.134521,407.582520 299.837463,402.663696 
	C299.520660,397.418304 302.752686,393.859589 308.799988,393.596252 
	C319.900452,393.112946 330.588959,391.101807 341.001526,386.105927 
z"/>
<path fill="#020202" opacity="1.000000" stroke="none" 
	d="
M275.726349,228.696198 
	C286.180023,226.684784 296.220551,224.425858 306.382965,223.102798 
	C312.575531,222.296585 316.620697,226.099289 316.746338,231.226425 
	C316.870697,236.299484 312.901520,239.767761 306.719727,239.987793 
	C268.843994,241.335968 239.040695,267.148285 232.410629,304.479523 
	C231.714996,308.396362 231.687531,312.431213 231.336090,316.410065 
	C230.833923,322.095642 227.558762,325.316956 222.491608,325.127106 
	C217.411942,324.936829 214.153931,321.181152 214.317673,315.182587 
	C214.879425,294.605621 221.187851,275.981201 233.790604,259.631256 
	C244.719772,245.452484 258.566376,235.135635 275.726349,228.696198 
z"/>
<path fill="#040102" opacity="1.000000" stroke="none" 
	d="
M476.625061,37.876526 
	C477.503357,40.535236 478.095764,42.998409 478.705444,45.807495 
	C476.577759,48.085243 474.407379,49.989902 472.300140,51.962055 
	C471.439178,52.767841 470.388885,53.592972 469.986694,54.627716 
	C468.492676,58.471558 465.746307,60.692631 461.723419,60.673752 
	C457.940247,60.656002 455.327820,58.572617 453.714752,54.980518 
	C453.093567,53.597195 451.216125,52.835320 450.223907,51.549019 
	C448.321198,49.082378 445.776276,46.654716 445.084808,43.823284 
	C444.177948,40.110188 446.764343,37.459743 450.232910,35.678604 
	C451.756775,34.896091 453.140411,33.310421 453.947479,31.756832 
	C456.945770,25.985228 465.137329,24.505358 468.159393,29.962721 
	C470.244476,33.728096 473.061676,35.702091 476.625061,37.876526 
z"/>
<path fill="#040002" opacity="1.000000" stroke="none" 
	d="
M409.046448,35.069077 
	C412.695679,35.076786 415.869049,34.935215 419.022278,35.126129 
	C424.137634,35.435856 427.697876,39.081211 427.664795,43.702332 
	C427.631378,48.369812 424.058960,51.933979 418.912323,52.078545 
	C413.420746,52.232803 407.918457,52.226692 402.426392,52.081642 
	C397.104706,51.941086 393.761383,48.656174 393.673645,43.827839 
	C393.585907,39.001591 396.876678,35.519970 402.068451,35.122360 
	C404.221527,34.957466 406.396484,35.078224 409.046448,35.069077 
z"/>
<path fill="#060102" opacity="1.000000" stroke="none" 
	d="
M84.603668,38.428886 
	C87.244286,42.773632 87.126152,46.672596 83.574722,49.926693 
	C80.385147,52.849228 76.622948,52.981228 73.106102,50.560421 
	C69.742577,48.245155 68.769104,44.807503 69.985146,40.924500 
	C71.892395,34.834427 78.608620,33.568382 84.603668,38.428886 
z"/>
<path fill="#070103" opacity="1.000000" stroke="none" 
	d="
M47.698212,36.136597 
	C52.051926,38.965435 53.270317,42.690483 51.536129,47.054901 
	C50.117729,50.624565 47.130405,52.336159 43.236832,52.053165 
	C39.102596,51.752686 36.561897,49.395191 35.585213,45.454933 
	C33.923794,38.752262 39.975723,33.906887 47.698212,36.136597 
z"/>
<path fill="#060102" opacity="1.000000" stroke="none" 
	d="
M108.878105,51.505562 
	C104.080940,48.155457 102.493073,44.308807 104.288177,40.343704 
	C105.873871,36.841152 108.768044,34.848217 112.646866,35.203049 
	C116.913445,35.593357 119.668259,38.102283 120.435989,42.414577 
	C121.530777,48.563969 116.614128,52.597004 108.878105,51.505562 
z"/>
<path fill="#02A7F2" opacity="1.000000" stroke="none" 
	d="
M290.694855,335.332520 
	C282.416260,326.414307 280.439148,316.011444 284.935455,306.153015 
	C289.269958,296.649353 299.060394,290.618011 309.330139,291.124786 
	C319.779694,291.640442 328.774780,298.352692 332.282898,308.252441 
	C336.148438,319.160858 332.280487,331.109436 322.727173,337.771515 
	C313.119568,344.471436 300.805878,343.623383 290.694855,335.332520 
z"/>
</svg>